<svg width="38" height="38" viewBox="0 0 38 38" fill="none" xmlns="http://www.w3.org/2000/svg">
<g clip-path="url(#clip0)">
<path d="M27.6331 2.57397H27.5686C22.8348 2.57397 20.1881 6.03829 18.9617 8.38366C17.7136 6.03822 15.0885 2.57397 10.3547 2.57397H10.2687C5.14747 2.61706 0.879304 6.98503 0.62113 12.515C0.298286 19.293 5.70698 23.8547 13.7974 30.7403C15.1961 31.9453 16.6809 33.2148 18.2516 34.5704L18.9617 35.1944L19.6719 34.5704C21.2211 33.2148 22.7273 31.9453 24.126 30.7403C32.2164 23.8547 37.6247 19.293 37.3018 12.515C37.0434 6.98496 32.7543 2.61699 27.6331 2.57397Z" fill="#00C39D"/>
<path d="M37.302 12.515C37.6248 19.293 32.2167 23.8547 24.1262 30.7403C22.7275 31.9453 21.2212 33.2148 19.6721 34.5704L18.9619 35.1944V8.38366C20.1884 6.03822 22.835 2.57397 27.5689 2.57397H27.6333C32.7546 2.61699 37.0438 6.98496 37.302 12.515Z" fill="#00A484"/>
<path d="M18.3395 10.5623H15.8772L10.4121 25.3063H12.5741L18.3395 10.5623Z" fill="white"/>
<path d="M20.982 15.5968V13.1994L27.5881 17.3948V19.4326L20.982 23.6281V20.7512L25.1859 18.2939L20.982 15.5968Z" fill="white"/>
</g>
<defs>
<clipPath id="clip0">
<rect width="36.708" height="36.708" fill="white" transform="translate(0.607422 0.530273)"/>
</clipPath>
</defs>
</svg>
