<svg width="846" height="126" fill="none" xmlns="http://www.w3.org/2000/svg"><g filter="url(#filter0_d)" fill="#fff"><path fill-rule="evenodd" clip-rule="evenodd" d="M26.095 33.78v14.953L0 65.387V76.25l26.095 16.655v9.855c0 1.92.764 3.762 2.123 5.12A7.253 7.253 0 0033.344 110h50.407a7.253 7.253 0 005.126-2.121 7.238 7.238 0 002.123-5.12v-68.98H26.095zM13.142 71v-.377l12.953-7.813v15.995L13.142 71zm69.333-3.129v5.308l-17.962 11.44v-7.045l11.547-6.959v-.18l-11.547-6.96V56.43l17.962 11.441zM36.345 89.27h6.524l15.12-39.805h-6.523L36.345 89.27z"/><path d="M46.268 20.79c0 1.078 1.247 2.172 3.32 2.896l-1.993 4.229c-4.473-1.905-6.277-4.476-6.277-7.205 0-3.476 2.986-4.801 2.986-7.039 0-1.122-1.247-2.172-3.32-2.896l1.972-4.258c4.472 1.933 6.335 4.504 6.335 7.241 0 3.476-3.023 4.801-3.023 7.031zM71.276 20.79c0 1.078 1.247 2.172 3.313 2.896l-1.986 4.229c-4.473-1.905-6.3-4.476-6.3-7.205 0-3.476 2.987-4.801 2.987-7.039 0-1.122-1.247-2.172-3.32-2.896l1.994-4.258c4.472 1.904 6.299 4.475 6.299 7.241 0 3.476-2.987 4.801-2.987 7.031zM59.2 14.243c0 1.072 1.247 2.173 3.32 2.897l-1.994 4.221c-4.472-1.904-6.299-4.467-6.299-7.205 0-3.475 2.987-4.8 2.987-7.038 0-1.115-1.247-2.172-3.32-2.896L55.887 0c4.473 1.904 6.3 4.468 6.3 7.241 0 3.44-2.987 4.765-2.987 7.002z"/></g><g filter="url(#filter1_d)"><path d="M159.632 52.98V41.8h-45.494V102h13.932V80.07h27.864V68.89H128.07V52.98h31.562zM221.524 102l-13.502-19.35c7.826-3.354 12.384-9.976 12.384-19.006 0-13.502-10.062-21.844-26.144-21.844h-26.058V102h13.932V85.23h12.814L206.56 102h14.964zm-15.222-38.356c0 6.536-4.3 10.492-12.814 10.492h-11.352V53.152h11.352c8.514 0 12.814 3.87 12.814 10.492zm53.436 39.388c18.92 0 32.938-13.158 32.938-31.132 0-17.974-14.018-31.132-32.938-31.132-19.006 0-32.938 13.244-32.938 31.132s13.932 31.132 32.938 31.132zm0-11.868c-10.75 0-18.834-7.826-18.834-19.264 0-11.438 8.084-19.264 18.834-19.264s18.834 7.826 18.834 19.264c0 11.438-8.084 19.264-18.834 19.264zM343.739 41.8v36.55L313.811 41.8h-11.524V102h13.76V65.45L346.061 102h11.438V41.8h-13.76zm39.613 60.2h13.932V53.152h19.264V41.8h-52.46v11.352h19.264V102zm53.678-11.18V76.888h27.95V66.052h-27.95V52.98h31.648V41.8h-45.494V102h46.612V90.82H437.03zm84.443-49.02v36.55L491.545 41.8h-11.524V102h13.76V65.45L523.795 102h11.438V41.8h-13.76zm27.143 60.2h27.348c19.694 0 33.196-11.868 33.196-30.1s-13.502-30.1-33.196-30.1h-27.348V102zm13.932-11.438V53.238h12.728c11.954 0 19.78 7.138 19.78 18.662s-7.826 18.662-19.78 18.662h-12.728zm85.069 11.954c8.858 0 16.77-3.01 22.102-8.858l-4.042-4.042c-4.902 5.074-10.922 7.224-17.802 7.224-14.534 0-25.456-10.664-25.456-24.94 0-14.276 10.922-24.94 25.456-24.94 6.88 0 12.9 2.15 17.802 7.138l4.042-4.042c-5.332-5.848-13.244-8.772-22.016-8.772-18.146 0-31.562 12.986-31.562 30.616s13.416 30.616 31.476 30.616zm78.275-.516h6.708l-27.52-60.2h-6.278l-27.52 60.2h6.622l7.224-16.082h33.54L725.892 102zM687.45 80.758l14.448-32.336 14.448 32.336H687.45zm95.528-33.454V41.8h-41.28V102h6.364V76.458h31.132v-5.504h-31.132v-23.65h34.916zm18.646 49.192v-22.36h31.132v-5.418h-31.132V47.304h34.916V41.8h-41.28V102h42.57v-5.504h-36.206z" fill="#fff"/></g><defs><filter id="filter0_d" x="0" y="0" width="97" height="116" filterUnits="userSpaceOnUse" color-interpolation-filters="sRGB"><feFlood flood-opacity="0" result="BackgroundImageFix"/><feColorMatrix in="SourceAlpha" values="0 0 0 0 0 0 0 0 0 0 0 0 0 0 0 0 0 0 127 0"/><feOffset dx="4" dy="4"/><feGaussianBlur stdDeviation="1"/><feColorMatrix values="0 0 0 0 0 0 0 0 0 0 0 0 0 0 0 0 0 0 0.1 0"/><feBlend in2="BackgroundImageFix" result="effect1_dropShadow"/><feBlend in="SourceGraphic" in2="effect1_dropShadow" result="shape"/></filter><filter id="filter1_d" x="114.138" y="40.768" width="729.692" height="68.264" filterUnits="userSpaceOnUse" color-interpolation-filters="sRGB"><feFlood flood-opacity="0" result="BackgroundImageFix"/><feColorMatrix in="SourceAlpha" values="0 0 0 0 0 0 0 0 0 0 0 0 0 0 0 0 0 0 127 0"/><feOffset dx="4" dy="4"/><feGaussianBlur stdDeviation="1"/><feColorMatrix values="0 0 0 0 0 0 0 0 0 0 0 0 0 0 0 0 0 0 0.1 0"/><feBlend in2="BackgroundImageFix" result="effect1_dropShadow"/><feBlend in="SourceGraphic" in2="effect1_dropShadow" result="shape"/></filter></defs></svg>