<svg width="502" height="506" fill="none" xmlns="http://www.w3.org/2000/svg"><ellipse cx="251.512" cy="252.537" rx="250.488" ry="252.537" fill="#00C39D"/><mask id="a" maskUnits="userSpaceOnUse" x="0" y="0" width="501" height="506"><ellipse cx="250.488" cy="252.537" rx="250.488" ry="252.537" fill="#00C39D"/></mask><g mask="url(#a)"><path opacity=".8" d="M89.643 297.614l118.841-82.471 153.161-43.541L546.499 435.89 301.542 611.71l-211.9-314.096z" fill="#005141" fill-opacity=".8"/></g><g clip-path="url(#clip0)" fill="#fff"><path fill-rule="evenodd" clip-rule="evenodd" d="M168.035 171.507v44.628l-77.88 49.707v32.417l77.88 49.706v29.413c0 5.732 2.28 11.229 6.337 15.282a21.643 21.643 0 0015.297 6.33h150.439c5.738 0 11.24-2.277 15.297-6.33a21.6 21.6 0 006.336-15.282V171.507H168.035zm-38.659 109.959l38.659-23.318v47.74l-38.659-24.422zm206.924-8.212v15.842l-53.608 34.146v-21.028l34.463-20.768v-.541l-34.463-20.769v-21.028l53.608 34.146zm-137.675 63.862h19.471l45.126-118.798h-19.469l-45.128 118.798z"/><path d="M228.241 132.737c0 3.22 3.721 6.483 9.908 8.644l-5.949 12.621c-13.348-5.684-18.734-13.356-18.734-21.503 0-10.374 8.912-14.329 8.912-21.007 0-3.349-3.72-6.483-9.907-8.644l5.883-12.708c13.349 5.77 18.908 13.443 18.908 21.612 0 10.373-9.021 14.328-9.021 20.985zM302.877 132.737c0 3.22 3.72 6.483 9.887 8.644l-5.928 12.621c-13.349-5.684-18.8-13.356-18.8-21.503 0-10.374 8.913-14.329 8.913-21.007 0-3.349-3.721-6.483-9.908-8.644l5.949-12.708c13.348 5.684 18.8 13.356 18.8 21.612 0 10.373-8.913 14.328-8.913 20.985zM266.835 113.2c0 3.198 3.721 6.483 9.908 8.644l-5.949 12.6c-13.348-5.684-18.799-13.335-18.799-21.504 0-10.373 8.912-14.328 8.912-21.006 0-3.328-3.72-6.483-9.907-8.645l5.948-12.6c13.348 5.685 18.8 13.335 18.8 21.612 0 10.266-8.913 14.221-8.913 20.899z"/></g><defs><clipPath id="clip0"><path fill="#fff" transform="translate(90.155 70.69)" d="M0 0h272.514v328.861H0z"/></clipPath></defs></svg>