<svg width="197" height="36" viewBox="0 0 197 36" fill="none" xmlns="http://www.w3.org/2000/svg">
<rect width="36" height="36" rx="18" fill="#00C39D"/>
<mask id="mask0" style="mask-type:alpha" maskUnits="userSpaceOnUse" x="0" y="0" width="36" height="36">
<rect width="36" height="36" rx="18" fill="#00C39D"/>
</mask>
<g mask="url(#mask0)">
<path opacity="0.8" d="M5.5383 20.8497L14.5171 14.4655L26.2205 11.2422L37.0424 26.6714L18.2662 40.1482L5.5383 20.8497Z" fill="#005141" fill-opacity="0.8"/>
<path fill-rule="evenodd" clip-rule="evenodd" d="M12.5337 11.0039C11.9849 11.0039 11.5401 11.4487 11.5401 11.9975V14.4753L5.96041 18.0486C5.67519 18.2313 5.50266 18.5467 5.50266 18.8854V20.3198C5.50266 20.6585 5.67519 20.9739 5.96042 21.1565L11.5401 24.7298V27.0178C11.5401 27.4636 11.7168 27.8913 12.0313 28.2065C12.3458 28.5218 12.7723 28.6989 13.2171 28.6989H24.8794C25.3242 28.6989 25.7507 28.5218 26.0653 28.2065C26.3798 27.8913 26.5564 27.4636 26.5564 27.0178V11.9975C26.5564 11.4487 26.1116 11.0039 25.5628 11.0039H12.5337ZM8.54316 19.5572L11.5401 17.7433V21.4568L8.54316 19.5572ZM24.5842 18.9184V20.1506L20.4284 22.8067V21.171L23.1 19.5556V19.5135L20.4284 17.898V16.2623L24.5842 18.9184ZM13.9114 23.886H15.4208L18.9191 14.6451H17.4098L13.9114 23.886Z" fill="#F9FAFB"/>
<path d="M16.2073 7.98802C16.2073 8.19049 16.3958 8.39516 16.7214 8.55497C16.8536 8.61983 16.921 8.77625 16.8584 8.90948L16.6162 9.42517C16.5593 9.54625 16.416 9.60121 16.296 9.54223C15.4204 9.11213 15.0619 8.5567 15.0619 7.96953C15.0619 7.16261 15.7528 6.85497 15.7528 6.33552C15.7528 6.12459 15.5638 5.92468 15.2374 5.767C15.1055 5.70327 15.0379 5.54802 15.0993 5.41498L15.3392 4.89504C15.3957 4.77249 15.5405 4.71688 15.6614 4.77694C16.5373 5.21225 16.9067 5.7674 16.9067 6.35569C16.9067 7.16261 16.2073 7.47025 16.2073 7.98802Z" fill="#F9FAFB"/>
<path d="M21.9932 7.98802C21.9932 8.19049 22.1816 8.39515 22.5063 8.55496C22.6382 8.61985 22.7055 8.77593 22.6432 8.90903L22.4018 9.42473C22.3451 9.54601 22.2017 9.60113 22.0815 9.54212C21.2054 9.11203 20.8427 8.55665 20.8427 7.96953C20.8427 7.16261 21.5336 6.85497 21.5336 6.33552C21.5336 6.12482 21.345 5.92511 21.0192 5.76751C20.8869 5.70352 20.8194 5.54757 20.8816 5.41441L21.1251 4.89248C21.1818 4.77102 21.3253 4.71576 21.4456 4.77483C22.3214 5.20494 22.6841 5.76084 22.6841 6.35569C22.6841 7.16261 21.9932 7.47025 21.9932 7.98802Z" fill="#F9FAFB"/>
<path d="M19.1991 6.46834C19.1991 6.66944 19.3876 6.87492 19.7131 7.0351C19.8452 7.10011 19.9127 7.25665 19.85 7.3899L19.608 7.90403C19.5511 8.02501 19.4079 8.07988 19.2879 8.021C18.4115 7.59109 18.0487 7.03694 18.0487 6.44817C18.0487 5.64125 18.7396 5.33362 18.7396 4.81416C18.7396 4.60498 18.5513 4.40459 18.226 4.24667C18.0935 4.18236 18.0261 4.02587 18.0888 3.89262L18.3307 3.37849C18.3876 3.2575 18.5308 3.20262 18.6508 3.26151C19.5273 3.69146 19.8901 4.24617 19.8901 4.84274C19.8901 5.64125 19.1991 5.94889 19.1991 6.46834Z" fill="#F9FAFB"/>
</g>
<path d="M60.892 14.406H53.39V17.486H59.374V20.412H53.39V26H49.606V11.48H60.892V14.406ZM62.469 26V15H65.769L65.923 17.376C66.187 16.5693 66.5903 15.9387 67.133 15.484C67.6903 15.0147 68.4016 14.78 69.267 14.78C69.5456 14.78 69.7803 14.8093 69.971 14.868C70.1763 14.912 70.3376 14.9633 70.455 15.022L70.081 18.102C69.9343 18.058 69.7436 18.014 69.509 17.97C69.289 17.926 69.0176 17.904 68.695 17.904C68.0203 17.904 67.4336 18.1167 66.935 18.542C66.451 18.9673 66.209 19.6053 66.209 20.456V26H62.469ZM77.0292 14.78C78.1878 14.78 79.1998 15.0073 80.0652 15.462C80.9452 15.9167 81.6272 16.5693 82.1112 17.42C82.6098 18.2707 82.8592 19.2973 82.8592 20.5C82.8592 21.7027 82.6098 22.7293 82.1112 23.58C81.6272 24.4307 80.9452 25.0833 80.0652 25.538C79.1998 25.9927 78.1878 26.22 77.0292 26.22C75.8852 26.22 74.8732 25.9927 73.9932 25.538C73.1278 25.0833 72.4458 24.4307 71.9472 23.58C71.4632 22.7293 71.2212 21.7027 71.2212 20.5C71.2212 19.2973 71.4632 18.2707 71.9472 17.42C72.4458 16.5693 73.1278 15.9167 73.9932 15.462C74.8732 15.0073 75.8852 14.78 77.0292 14.78ZM77.0292 17.442C76.3838 17.442 75.8778 17.684 75.5112 18.168C75.1592 18.6373 74.9832 19.4147 74.9832 20.5C74.9832 21.5707 75.1592 22.348 75.5112 22.832C75.8778 23.316 76.3838 23.558 77.0292 23.558C77.6892 23.558 78.1952 23.316 78.5472 22.832C78.9138 22.348 79.0972 21.5707 79.0972 20.5C79.0972 19.4147 78.9138 18.6373 78.5472 18.168C78.1952 17.684 77.6892 17.442 77.0292 17.442ZM84.9631 26V15H88.3071L88.4171 17.222C88.7544 16.4153 89.2458 15.8067 89.8911 15.396C90.5364 14.9853 91.2991 14.78 92.1791 14.78C93.3084 14.78 94.2251 15.11 94.9291 15.77C95.6331 16.43 95.9851 17.398 95.9851 18.674V26H92.2451V19.664C92.2451 18.9013 92.0984 18.3733 91.8051 18.08C91.5118 17.7867 91.1378 17.64 90.6831 17.64C90.1404 17.64 89.6711 17.8307 89.2751 18.212C88.8938 18.5933 88.7031 19.246 88.7031 20.17V26H84.9631ZM106.417 15V17.662H103.139V22.084C103.139 22.612 103.264 22.9933 103.513 23.228C103.777 23.448 104.137 23.558 104.591 23.558C104.943 23.558 105.244 23.5213 105.493 23.448C105.743 23.36 105.977 23.2353 106.197 23.074L106.593 25.384C106.227 25.6333 105.757 25.8387 105.185 26C104.628 26.1467 104.063 26.22 103.491 26.22C102.23 26.22 101.233 25.956 100.499 25.428C99.7806 24.8853 99.4139 23.976 99.3992 22.7V17.662H97.5072V15H99.3992V12.536L103.139 11.502V15H106.417ZM113.513 26.22C111.679 26.22 110.227 25.7213 109.157 24.724C108.101 23.7267 107.573 22.3187 107.573 20.5C107.573 19.2973 107.815 18.2707 108.299 17.42C108.797 16.5547 109.472 15.902 110.323 15.462C111.188 15.0073 112.193 14.78 113.337 14.78C114.495 14.78 115.478 15.0073 116.285 15.462C117.106 15.902 117.729 16.518 118.155 17.31C118.58 18.0873 118.793 18.982 118.793 19.994C118.793 20.2727 118.778 20.544 118.749 20.808C118.734 21.0573 118.719 21.27 118.705 21.446H111.203C111.305 22.2087 111.555 22.7587 111.951 23.096C112.347 23.4187 112.867 23.58 113.513 23.58C114.07 23.58 114.51 23.47 114.833 23.25C115.17 23.03 115.419 22.722 115.581 22.326L118.573 23.316C118.367 23.9467 118.008 24.482 117.495 24.922C116.996 25.3473 116.395 25.67 115.691 25.89C115.001 26.11 114.275 26.22 113.513 26.22ZM113.337 17.398C112.149 17.398 111.445 18.08 111.225 19.444H115.251C115.089 18.08 114.451 17.398 113.337 17.398ZM120.885 26V15H124.229L124.339 17.222C124.676 16.4153 125.168 15.8067 125.813 15.396C126.458 14.9853 127.221 14.78 128.101 14.78C129.23 14.78 130.147 15.11 130.851 15.77C131.555 16.43 131.907 17.398 131.907 18.674V26H128.167V19.664C128.167 18.9013 128.02 18.3733 127.727 18.08C127.434 17.7867 127.06 17.64 126.605 17.64C126.062 17.64 125.593 17.8307 125.197 18.212C124.816 18.5933 124.625 19.246 124.625 20.17V26H120.885ZM138.576 26.22C137.212 26.22 136.112 25.7213 135.276 24.724C134.454 23.7267 134.044 22.3333 134.044 20.544C134.044 19.312 134.234 18.2707 134.616 17.42C135.012 16.5547 135.554 15.902 136.244 15.462C136.948 15.0073 137.754 14.78 138.664 14.78C139.441 14.78 140.101 14.9707 140.644 15.352C141.201 15.7333 141.619 16.2393 141.898 16.87V10.336H145.638V26H142.294L142.162 23.844C141.854 24.5773 141.384 25.1567 140.754 25.582C140.138 26.0073 139.412 26.22 138.576 26.22ZM139.874 23.47C140.49 23.47 140.981 23.2133 141.348 22.7C141.714 22.1867 141.898 21.4313 141.898 20.434C141.898 19.51 141.722 18.7987 141.37 18.3C141.018 17.7867 140.526 17.53 139.896 17.53C139.25 17.53 138.737 17.772 138.356 18.256C137.989 18.7253 137.806 19.4733 137.806 20.5C137.806 21.5267 137.989 22.282 138.356 22.766C138.722 23.2353 139.228 23.47 139.874 23.47ZM161.455 21.842C161.029 23.3673 160.245 24.482 159.101 25.186C157.971 25.8753 156.637 26.22 155.097 26.22C153.615 26.22 152.339 25.9267 151.269 25.34C150.213 24.7387 149.399 23.8807 148.827 22.766C148.255 21.6513 147.969 20.3093 147.969 18.74C147.969 17.1707 148.255 15.8287 148.827 14.714C149.399 13.5993 150.213 12.7487 151.269 12.162C152.339 11.5607 153.608 11.26 155.075 11.26C156.585 11.26 157.905 11.5827 159.035 12.228C160.164 12.8733 160.912 13.8853 161.279 15.264L157.957 16.606C157.751 15.7113 157.414 15.0953 156.945 14.758C156.49 14.406 155.911 14.23 155.207 14.23C154.151 14.23 153.322 14.6113 152.721 15.374C152.134 16.1367 151.841 17.2587 151.841 18.74C151.841 20.2213 152.119 21.3433 152.677 22.106C153.249 22.8687 154.099 23.25 155.229 23.25C155.933 23.25 156.527 23.0593 157.011 22.678C157.509 22.282 157.847 21.6807 158.023 20.874L161.455 21.842ZM169.433 19.026C169.433 18.5127 169.286 18.1093 168.993 17.816C168.714 17.508 168.333 17.354 167.849 17.354C167.365 17.354 166.947 17.4787 166.595 17.728C166.258 17.9627 166.023 18.388 165.891 19.004L162.723 18.256C162.928 17.2 163.471 16.3567 164.351 15.726C165.231 15.0953 166.47 14.78 168.069 14.78C169.682 14.78 170.929 15.1393 171.809 15.858C172.704 16.562 173.151 17.596 173.151 18.96V22.986C173.151 23.558 173.408 23.844 173.921 23.844C174.185 23.844 174.398 23.8147 174.559 23.756L174.339 25.89C173.899 26.0953 173.364 26.198 172.733 26.198C172.044 26.198 171.45 26.066 170.951 25.802C170.452 25.5233 170.115 25.1053 169.939 24.548C169.631 25.12 169.14 25.5453 168.465 25.824C167.805 26.088 167.101 26.22 166.353 26.22C165.224 26.22 164.322 25.9633 163.647 25.45C162.987 24.922 162.657 24.1667 162.657 23.184C162.657 22.392 162.892 21.7393 163.361 21.226C163.845 20.698 164.6 20.3313 165.627 20.126L169.433 19.334V19.026ZM166.353 22.832C166.353 23.1547 166.47 23.3967 166.705 23.558C166.94 23.7193 167.218 23.8 167.541 23.8C168.04 23.8 168.48 23.6533 168.861 23.36C169.242 23.052 169.433 22.5753 169.433 21.93V21.314L167.651 21.688C167.211 21.776 166.881 21.908 166.661 22.084C166.456 22.2453 166.353 22.4947 166.353 22.832ZM183.604 15V17.662H180.48V26H176.74V17.662H174.98V15H176.74V13.988C176.74 13.0493 176.938 12.294 177.334 11.722C177.745 11.1353 178.28 10.71 178.94 10.446C179.615 10.1673 180.341 10.028 181.118 10.028C181.72 10.028 182.248 10.094 182.702 10.226C183.157 10.3433 183.494 10.4827 183.714 10.644L183.34 12.976C183.179 12.888 182.996 12.8147 182.79 12.756C182.585 12.6827 182.328 12.646 182.02 12.646C181.492 12.646 181.067 12.7633 180.744 12.998C180.422 13.2327 180.26 13.6433 180.26 14.23V15H183.604ZM190.362 26.22C188.529 26.22 187.077 25.7213 186.006 24.724C184.95 23.7267 184.422 22.3187 184.422 20.5C184.422 19.2973 184.664 18.2707 185.148 17.42C185.647 16.5547 186.322 15.902 187.172 15.462C188.038 15.0073 189.042 14.78 190.186 14.78C191.345 14.78 192.328 15.0073 193.134 15.462C193.956 15.902 194.579 16.518 195.004 17.31C195.43 18.0873 195.642 18.982 195.642 19.994C195.642 20.2727 195.628 20.544 195.598 20.808C195.584 21.0573 195.569 21.27 195.554 21.446H188.052C188.155 22.2087 188.404 22.7587 188.8 23.096C189.196 23.4187 189.717 23.58 190.362 23.58C190.92 23.58 191.36 23.47 191.682 23.25C192.02 23.03 192.269 22.722 192.43 22.326L195.422 23.316C195.217 23.9467 194.858 24.482 194.344 24.922C193.846 25.3473 193.244 25.67 192.54 25.89C191.851 26.11 191.125 26.22 190.362 26.22ZM190.186 17.398C188.998 17.398 188.294 18.08 188.074 19.444H192.1C191.939 18.08 191.301 17.398 190.186 17.398ZM189.9 9.764H193.376L191.154 13.57H188.426L189.9 9.764Z" fill="#F9FAFB"/>
</svg>
