<svg width="388" height="65" viewBox="0 0 388 65" fill="none" xmlns="http://www.w3.org/2000/svg">
<path d="M81.0486 25.3673V32.2477H93.0991V37.0825H81.0486V46.5662H75.0234V20.5325H94.6983V25.3673H81.0486Z" fill="white"/>
<path d="M114.993 46.5662L109.972 39.314H109.675H104.431V46.5662H98.4054V20.5325H109.675C111.981 20.5325 113.977 20.9168 115.663 21.6854C117.374 22.454 118.688 23.545 119.605 24.9582C120.523 26.3715 120.981 28.0451 120.981 29.979C120.981 31.9129 120.51 33.5865 119.568 34.9998C118.651 36.3883 117.336 37.4544 115.626 38.1982L121.465 46.5662H114.993ZM114.882 29.979C114.882 28.5162 114.411 27.4004 113.468 26.6318C112.526 25.8384 111.15 25.4417 109.34 25.4417H104.431V34.5163H109.34C111.15 34.5163 112.526 34.1196 113.468 33.3262C114.411 32.5328 114.882 31.4171 114.882 29.979Z" fill="white"/>
<path d="M137.991 47.0125C135.289 47.0125 132.846 46.4299 130.664 45.2645C128.507 44.0992 126.809 42.5 125.569 40.4669C124.354 38.409 123.747 36.1031 123.747 33.5493C123.747 30.9956 124.354 28.7021 125.569 26.669C126.809 24.6111 128.507 22.9995 130.664 21.8342C132.846 20.6688 135.289 20.0862 137.991 20.0862C140.694 20.0862 143.124 20.6688 145.281 21.8342C147.438 22.9995 149.137 24.6111 150.377 26.669C151.616 28.7021 152.236 30.9956 152.236 33.5493C152.236 36.1031 151.616 38.409 150.377 40.4669C149.137 42.5 147.438 44.0992 145.281 45.2645C143.124 46.4299 140.694 47.0125 137.991 47.0125ZM137.991 41.8802C139.529 41.8802 140.917 41.533 142.157 40.8388C143.397 40.1198 144.364 39.128 145.058 37.8635C145.777 36.599 146.137 35.161 146.137 33.5493C146.137 31.9377 145.777 30.4997 145.058 29.2352C144.364 27.9707 143.397 26.9913 142.157 26.2971C140.917 25.5781 139.529 25.2185 137.991 25.2185C136.454 25.2185 135.066 25.5781 133.826 26.2971C132.586 26.9913 131.607 27.9707 130.888 29.2352C130.193 30.4997 129.846 31.9377 129.846 33.5493C129.846 35.161 130.193 36.599 130.888 37.8635C131.607 39.128 132.586 40.1198 133.826 40.8388C135.066 41.533 136.454 41.8802 137.991 41.8802Z" fill="white"/>
<path d="M180.27 20.5325V46.5662H175.324L162.343 30.76V46.5662H156.392V20.5325H161.376L174.319 36.3387V20.5325H180.27Z" fill="white"/>
<path d="M191.451 25.4417H183.12V20.5325H205.807V25.4417H197.476V46.5662H191.451V25.4417Z" fill="white"/>
<path d="M228.836 41.7314V46.5662H208.677V20.5325H228.352V25.3673H214.665V31.0204H226.753V35.7064H214.665V41.7314H228.836Z" fill="white"/>
<path d="M257.135 20.5325V46.5662H252.189L239.209 30.76V46.5662H233.258V20.5325H238.242L251.185 36.3387V20.5325H257.135Z" fill="white"/>
<path d="M262.923 20.5325H274.751C277.577 20.5325 280.069 21.0779 282.226 22.1689C284.408 23.235 286.094 24.7475 287.284 26.7062C288.499 28.6649 289.107 30.946 289.107 33.5493C289.107 36.1527 288.499 38.4338 287.284 40.3925C286.094 42.3512 284.408 43.8761 282.226 44.967C280.069 46.0332 277.577 46.5662 274.751 46.5662H262.923V20.5325ZM274.453 41.6198C277.056 41.6198 279.127 40.9008 280.664 39.4627C282.226 37.9999 283.007 36.0288 283.007 33.5493C283.007 31.0699 282.226 29.1112 280.664 27.6732C279.127 26.2103 277.056 25.4789 274.453 25.4789H268.948V41.6198H274.453Z" fill="white"/>
<path d="M305.738 46.7894C303.16 46.7894 300.829 46.2191 298.746 45.0786C296.688 43.9381 295.064 42.3636 293.874 40.3553C292.709 38.3222 292.126 36.0535 292.126 33.5493C292.126 31.0451 292.709 28.7889 293.874 26.7806C295.064 24.7475 296.701 23.1606 298.783 22.0201C300.866 20.8796 303.197 20.3093 305.776 20.3093C307.71 20.3093 309.495 20.6317 311.131 21.2763C312.768 21.9209 314.156 22.8631 315.297 24.1028L313.549 25.8508C311.516 23.7929 308.949 22.7639 305.85 22.7639C303.792 22.7639 301.92 23.235 300.234 24.1772C298.548 25.1194 297.221 26.4087 296.254 28.0451C295.312 29.6815 294.841 31.5162 294.841 33.5493C294.841 35.5825 295.312 37.4172 296.254 39.0536C297.221 40.69 298.548 41.9793 300.234 42.9215C301.92 43.8637 303.792 44.3348 305.85 44.3348C308.974 44.3348 311.54 43.2934 313.549 41.2107L315.297 42.9587C314.156 44.1984 312.755 45.153 311.094 45.8224C309.458 46.467 307.672 46.7894 305.738 46.7894Z" fill="white"/>
<path d="M336.466 39.6115H321.961L318.837 46.5662H315.973L327.874 20.5325H330.589L342.491 46.5662H339.59L336.466 39.6115ZM335.462 37.38L329.213 23.3962L322.965 37.38H335.462Z" fill="white"/>
<path d="M349.178 22.9127V33.1402H362.642V35.5205H349.178V46.5662H346.426V20.5325H364.278V22.9127H349.178Z" fill="white"/>
<path d="M388 44.186V46.5662H369.59V20.5325H387.442V22.9127H372.342V32.1733H385.806V34.5163H372.342V44.186H388Z" fill="white"/>
<rect x="0.582031" y="0.895874" width="62.7085" height="63.2065" rx="31.3543" fill="#00C39D"/>
<mask id="mask0" mask-type="alpha" maskUnits="userSpaceOnUse" x="0" y="0" width="64" height="65">
<rect x="0.582031" y="0.895874" width="62.7085" height="63.2065" rx="31.3543" fill="#00C39D"/>
</mask>
<g mask="url(#mask0)">
<path opacity="0.8" d="M10.2477 37.1997L26.1104 25.9209L46.7868 20.2268L65.9072 47.4873L32.7356 71.2964L10.2477 37.1997Z" fill="#005141" fill-opacity="0.8"/>
</g>
<g clip-path="url(#clip0)">
<path fill-rule="evenodd" clip-rule="evenodd" d="M20.6846 20.0629V26.1094L10.168 32.8442V37.2365L20.6846 43.9711V47.9564C20.6846 48.7329 20.9923 49.4778 21.5402 50.0269C22.088 50.5761 22.8311 50.8846 23.6058 50.8846H43.9204C44.6952 50.8846 45.4382 50.5761 45.9861 50.0269C46.5339 49.4778 46.8416 48.7329 46.8416 47.9564V20.0629H20.6846ZM15.4642 34.9612L20.6846 31.8019V38.2701L15.4642 34.9612ZM43.4062 33.8486V35.995L36.1672 40.6214V37.7723L40.8209 34.9584V34.8852L36.1672 32.0712V29.2221L43.4062 33.8486ZM24.8152 42.5013H27.4445L33.5381 26.4053H30.909L24.8152 42.5013Z" fill="white"/>
<path d="M28.813 14.8099C28.813 15.2462 29.3155 15.6884 30.1509 15.9812L29.3476 17.6912C27.5453 16.9211 26.818 15.8816 26.818 14.7777C26.818 13.3722 28.0214 12.8364 28.0214 11.9316C28.0214 11.4777 27.519 11.0531 26.6836 10.7603L27.478 9.03857C29.2805 9.82039 30.0312 10.8599 30.0312 11.9667C30.0312 13.3722 28.813 13.9081 28.813 14.8099Z" fill="white"/>
<path d="M38.8922 14.8099C38.8922 15.2462 39.3946 15.6884 40.2272 15.9812L39.4268 17.6912C37.6244 16.9211 36.8883 15.8816 36.8883 14.7777C36.8883 13.3722 38.0918 12.8364 38.0918 11.9316C38.0918 11.4777 37.5893 11.0531 36.7539 10.7603L37.5572 9.03857C39.3595 9.80868 40.0957 10.8482 40.0957 11.9667C40.0957 13.3722 38.8922 13.9081 38.8922 14.8099Z" fill="white"/>
<path d="M34.0249 12.1626C34.0249 12.596 34.5274 13.0411 35.3628 13.3339L34.5595 15.041C32.7572 14.2709 32.0211 13.2343 32.0211 12.1275C32.0211 10.722 33.2245 10.1861 33.2245 9.28132C33.2245 8.83038 32.7222 8.40288 31.8867 8.11007L32.6899 6.40295C34.4924 7.17306 35.2285 8.20962 35.2285 9.33111C35.2285 10.722 34.0249 11.2578 34.0249 12.1626Z" fill="white"/>
</g>
<defs>
<clipPath id="clip0">
<rect x="10.168" y="6.40283" width="36.799" height="44.5575" rx="3.06195" fill="white"/>
</clipPath>
</defs>
</svg>
