<svg width="172" height="29" viewBox="0 0 172 29" fill="none" xmlns="https://www.w3.org/2000/svg">
<rect y="0.932617" width="27.5799" height="27.8001" rx="13.7899" fill="#00C39D"/>
<g filter="url(#filter0_d)">
<path d="M41.3947 11.7933V9.66679H32.7415V21.1172H35.3914V16.946H40.6913V14.8195H35.3914V11.7933H41.3947ZM53.1669 21.1172L50.5987 17.4367C52.0873 16.7988 52.9542 15.5392 52.9542 13.8216C52.9542 11.2535 51.0404 9.66679 47.9815 9.66679H43.0251V21.1172H45.6751V17.9274H47.9815H48.1124L50.3207 21.1172H53.1669ZM50.2716 13.8216C50.2716 15.0648 49.4537 15.8173 47.8343 15.8173H45.6751V11.826H47.8343C49.4537 11.826 50.2716 12.5621 50.2716 13.8216ZM60.4355 21.3135C64.0342 21.3135 66.7005 18.8107 66.7005 15.392C66.7005 11.9732 64.0342 9.4705 60.4355 9.4705C56.8204 9.4705 54.1705 11.9896 54.1705 15.392C54.1705 18.7944 56.8204 21.3135 60.4355 21.3135ZM60.4355 19.0561C58.3908 19.0561 56.8531 17.5676 56.8531 15.392C56.8531 13.2164 58.3908 11.7279 60.4355 11.7279C62.4802 11.7279 64.0178 13.2164 64.0178 15.392C64.0178 17.5676 62.4802 19.0561 60.4355 19.0561ZM76.4129 9.66679V16.6188L70.7204 9.66679H68.5285V21.1172H71.1457V14.1652L76.8545 21.1172H79.0301V9.66679H76.4129ZM83.9475 21.1172H86.5975V11.826H90.2616V9.66679H80.2834V11.826H83.9475V21.1172ZM94.1574 18.9907V16.3407H99.4737V14.2797H94.1574V11.7933H100.177V9.66679H91.5238V21.1172H100.39V18.9907H94.1574ZM110.219 9.66679V16.6188L104.527 9.66679H102.335V21.1172H104.952V14.1652L110.661 21.1172H112.836V9.66679H110.219ZM115.382 21.1172H120.584C124.329 21.1172 126.898 18.8598 126.898 15.392C126.898 11.9242 124.329 9.66679 120.584 9.66679H115.382V21.1172ZM118.032 18.9416V11.8424H120.453C122.726 11.8424 124.215 13.2001 124.215 15.392C124.215 17.5839 122.726 18.9416 120.453 18.9416H118.032ZM134.212 21.2153C135.897 21.2153 137.402 20.6428 138.416 19.5305L137.647 18.7617C136.715 19.7268 135.57 20.1357 134.261 20.1357C131.497 20.1357 129.42 18.1074 129.42 15.392C129.42 12.6766 131.497 10.6482 134.261 10.6482C135.57 10.6482 136.715 11.0572 137.647 12.0059L138.416 11.2371C137.402 10.1248 135.897 9.56864 134.229 9.56864C130.777 9.56864 128.225 12.0387 128.225 15.392C128.225 18.7453 130.777 21.2153 134.212 21.2153ZM149.101 21.1172H150.377L145.142 9.66679H143.948L138.714 21.1172H139.973L141.347 18.0583H147.727L149.101 21.1172ZM141.789 17.0768L144.537 10.9263L147.285 17.0768H141.789ZM159.959 10.7137V9.66679H152.107V21.1172H153.318V16.2589H159.239V15.2121H153.318V10.7137H159.959ZM163.505 20.0703V15.8173H169.427V14.7868H163.505V10.7137H170.147V9.66679H162.295V21.1172H170.392V20.0703H163.505Z" fill="#444444"/>
</g>
<mask id="mask0" mask-type="alpha" maskUnits="userSpaceOnUse" x="0" y="0" width="28" height="29">
<rect y="0.932617" width="27.5799" height="27.8001" rx="13.7899" fill="#00C39D"/>
</mask>
<g mask="url(#mask0)">
<path opacity="0.8" d="M4.25106 16.8999L11.2279 11.9391L20.322 9.43465L28.7317 21.4246L14.1419 31.8966L4.25106 16.8999Z" fill="#005141" fill-opacity="0.8"/>
</g>
<g clip-path="url(#clip0)">
<path fill-rule="evenodd" clip-rule="evenodd" d="M8.84113 9.36279V12.0223L4.21582 14.9844V16.9162L8.84113 19.8783V21.6312C8.84113 21.9727 8.97649 22.3003 9.21744 22.5418C9.45839 22.7834 9.78518 22.9191 10.1259 22.9191H19.0605C19.4013 22.9191 19.728 22.7834 19.969 22.5418C20.2099 22.3003 20.3453 21.9727 20.3453 21.6312V9.36279H8.84113ZM6.54517 15.9155L8.84113 14.5259V17.3709L6.54517 15.9155ZM18.8344 15.4261V16.3702L15.6506 18.405V17.1519L17.6973 15.9143V15.8821L15.6506 14.6444V13.3913L18.8344 15.4261ZM10.6578 19.2318H11.8142L14.4943 12.1524H13.338L10.6578 19.2318Z" fill="white"/>
<path d="M12.4161 7.05258C12.4161 7.24447 12.6371 7.43894 13.0045 7.56773L12.6512 8.31985C11.8585 7.98114 11.5386 7.52394 11.5386 7.03841C11.5386 6.42022 12.0679 6.18454 12.0679 5.78659C12.0679 5.58696 11.8469 5.40022 11.4795 5.27144L11.8289 4.51416C12.6217 4.85803 12.9518 5.31522 12.9518 5.80204C12.9518 6.42022 12.4161 6.65591 12.4161 7.05258Z" fill="white"/>
<path d="M16.8487 7.05258C16.8487 7.24447 17.0696 7.43894 17.4359 7.56773L17.0838 8.31985C16.2911 7.98114 15.9673 7.52394 15.9673 7.03841C15.9673 6.42022 16.4967 6.18454 16.4967 5.78659C16.4967 5.58696 16.2756 5.40022 15.9082 5.27144L16.2615 4.51416C17.0542 4.85287 17.378 5.31007 17.378 5.80204C17.378 6.42022 16.8487 6.65591 16.8487 7.05258Z" fill="white"/>
<path d="M14.708 5.88825C14.708 6.07886 14.929 6.27461 15.2965 6.4034L14.9431 7.15424C14.1504 6.81553 13.8267 6.35961 13.8267 5.87279C13.8267 5.25461 14.356 5.01893 14.356 4.62097C14.356 4.42263 14.135 4.23461 13.7676 4.10582L14.1208 3.35498C14.9136 3.69369 15.2374 4.1496 15.2374 4.64287C15.2374 5.25461 14.708 5.49029 14.708 5.88825Z" fill="white"/>
</g>
<defs>
<filter id="filter0_d" x="32.7412" y="9.4707" width="138.411" height="12.6038" filterUnits="userSpaceOnUse" color-interpolation-filters="sRGB">
<feFlood flood-opacity="0" result="BackgroundImageFix"/>
<feColorMatrix in="SourceAlpha" type="matrix" values="0 0 0 0 0 0 0 0 0 0 0 0 0 0 0 0 0 0 127 0"/>
<feOffset dx="0.380412" dy="0.380412"/>
<feGaussianBlur stdDeviation="0.190206"/>
<feColorMatrix type="matrix" values="0 0 0 0 0 0 0 0 0 0 0 0 0 0 0 0 0 0 0.28 0"/>
<feBlend mode="normal" in2="BackgroundImageFix" result="effect1_dropShadow"/>
<feBlend mode="normal" in="SourceGraphic" in2="effect1_dropShadow" result="shape"/>
</filter>
<clipPath id="clip0">
<rect x="4.21582" y="3.35498" width="16.1846" height="19.5977" rx="0.760824" fill="white"/>
</clipPath>
</defs>
</svg>
