<svg viewBox="465.375 169.69827586206884 1286.625 930.6034482758622" xmlns="http://www.w3.org/2000/svg" xmlns:blush="http://design.blush" overflow="visible" xmlns:xlink="http://www.w3.org/1999/xlink" width="1286.625px" height="930.6034482758622px"><g id="Master/Scene/Walking" stroke="none" stroke-width="1" fill="none" fill-rule="evenodd" blush:i="0"><g id="Background" opacity=".4" transform="translate(99.000000, 75.000000) scale(1.0375 1.037037037037037)" blush:width="1992" blush:height="1120" blush:component="Background" blush:i="0.0" blush:value="None"><g id="Background/None" stroke="none" stroke-width="1" fill="none" fill-rule="evenodd" fill-opacity="0" blush:i="0.0.0"/></g><g transform="translate(927.000000, 237.000000) scale(1 1)" blush:has-customizable-colors="true" blush:width="904" blush:height="859" id="Master/Character/Standing" blush:component="Master/Character/Standing" blush:i="0.1" blush:value="Standing"><g id="Master/Character/Standing" stroke="none" stroke-width="1" fill="none" fill-rule="evenodd" blush:has-customizable-colors="true" blush:i="0.1.0"><g id="Legs" transform="translate(50.000000, 263.000000) scale(1 1)" blush:width="693" blush:height="596" blush:component="Legs" blush:i="0.1.0.0" blush:value="Pants Jump"><g id="Legs/Pants Jump" stroke="none" stroke-width="1" fill="none" fill-rule="evenodd" blush:i="0.1.0.0.0"><g id="Right-Leg" transform="translate(192.361100, 0.266500)" blush:i="0.1.0.0.0.0"><path d="M32.217,212.4536 C32.218,212.4536 75.304,161.8156 75.304,161.8156 C77.621,159.0936 81.342,158.4546 83.74,160.4206 C111.7,182.8306 145.359,205.7406 179.536,214.5166 C225.788,225.0046 201.053,189.4856 235.179,202.3186 C243.27,207.2226 282.471,217.9666 285.212,228.5136 C289.951,239.0206 278.971,249.8736 273.475,258.1316 C248.285,292.4936 200.759,302.5906 161.337,291.8426 C128.121,283.7276 99.412,268.2026 71.693,250.1016 C58.413,241.2976 45.736,231.9576 33.395,221.8706 C30.422,219.4346 29.893,215.1746 32.217,212.4536" id="SKIN-DARKER" fill="#d29863" blush:color="Skin-600" blush:i="0.1.0.0.0.0.0"/><path d="M158.6135,1.645 C152.2185,3.967 153.6755,12.52 154.4545,18.314 C158.3415,48.804 175.0645,80.505 188.2565,106.319 C203.0295,136.971 224.8765,173.462 200.3055,202.879 C179.9245,209.076 141.9945,185.749 123.6855,174.113 L64.8905,263.837 C133.8085,310.74 236.6015,342.038 291.6165,257.943 C305.4175,236.609 314.4845,211.832 316.5685,186.448 C323.1575,122.68 283.2995,68.781 260.4135,14.039 C259.5695,11.713 258.2025,2.392 257.7505,-1.42108547e-13 L158.6135,1.645 Z" id="Fill-3" fill="#051026" blush:i="0.1.0.0.0.0.1"/><path d="M40.3576,227.4565 L89.4646,165.0125 C96.1556,170.2685 103.0696,175.3555 110.0576,180.1615 L65.0766,245.6415 C56.6286,239.8305 48.4096,233.7815 40.3576,227.4565" id="Fill-6" fill="#FFF" blush:i="0.1.0.0.0.0.2"/><path d="M54.094,237.8637 C57.33,233.4297 68.996,217.4437 79.874,202.5387 C66.774,194.5547 87.684,167.3887 98.678,176.7717 C100.103,174.8197 100.924,173.6937 100.924,173.6937 C92.746,167.7047 84.699,161.4257 77.072,154.7847 L0,240.5417 C3.483,243.6187 7.49,247.0237 11.053,249.9237 C21.188,256.0237 42.609,232.7487 54.094,237.8637" id="Fill-8" fill="#0A1B45" blush:i="0.1.0.0.0.0.3"/></g><path d="M243,0 C243,55.228475 289.562386,100 347,100 C404.437614,100 451,55.228475 451,0" id="Waist" fill="#0A1B45" blush:i="0.1.0.0.0.1"/><g id="Left-Leg" transform="translate(80.000400, 0.000221)" blush:i="0.1.0.0.0.2"><path d="M32.1969,228.973779 C106.8339,144.540779 51.7819,175.729779 161.2309,226.742779 C181.0439,234.596779 201.6439,244.225779 220.7839,235.444779 C224.6319,233.033779 227.5429,227.622779 233.6349,229.694779 C242.8429,229.652779 274.6659,253.056779 282.9799,257.205779 C287.1639,259.782779 289.8849,263.838779 290.6239,268.601779 C292.0189,287.082779 263.6029,303.165779 248.7199,310.172779 C193.0029,332.421779 132.8719,304.857779 85.7699,276.074779 C67.3869,264.603779 50.0909,252.101779 33.3409,238.375779 C30.3849,235.946779 29.8679,231.690779 32.1969,228.973779" id="SKIN" fill="#edb98a" blush:color="Skin-500" blush:i="0.1.0.0.0.2.0"/><path d="M265.5543,1.71647902 L172.1893,-2.84217094e-13 C170.6893,-0.0315209789 169.3113,1.54147902 168.3563,4.19947902 C163.4843,50.001479 200.6923,101.205479 217.4083,141.411479 C229.7863,168.040479 237.9553,201.561479 215.2483,224.664479 C190.8123,233.683479 145.9303,205.383479 124.0593,191.227479 L64.3633,280.355479 C110.8693,310.812479 167.3883,339.506479 225.3533,331.726479 C295.7713,322.699479 338.3143,248.374479 335.1733,181.891479 C334.0523,152.883479 324.9603,124.455479 313.3893,98.798479 C299.6173,65.997479 279.1913,38.853479 271.3943,6.52847902 C271.3953,6.52847902 271.2313,5.44347902 271.2303,5.44347902 C271.1773,5.08947902 271.1673,4.78247902 271.1223,4.45147902 C270.5103,2.14647902 267.8623,1.94247902 265.5543,1.71647902" id="Fill-14" fill="#0A1B45" blush:i="0.1.0.0.0.2.1"/><path d="M38.6031,242.643679 L88.1801,180.571679 C95.3371,186.279679 102.7631,191.830679 110.2831,197.085679 L64.7751,262.200679 C55.8371,255.951679 47.1371,249.449679 38.6031,242.643679" id="Fill-17" fill="#FFF" blush:i="0.1.0.0.0.2.2"/><path d="M53.9,254.385879 C57.16,249.971879 68.918,234.052879 79.88,219.208879 C66.786,211.127879 87.802,184.037879 98.833,193.550879 C100.267,191.607879 101.095,190.485879 101.095,190.485879 C92.863,184.395879 84.775,178.028879 77.072,171.318879 L1.20792265e-13,257.074879 C1.435,258.333879 4.325,260.864879 5.775,262.079879 L10.937,266.380879 C20.994,272.446879 42.477,249.235879 53.9,254.385879" id="Fill-19" fill="#0A1B45" blush:i="0.1.0.0.0.2.3"/><path d="M219.8746,1.51627902 L217.8746,1.49727902 C221.3786,63.172279 272.7616,110.752279 280.2776,171.135279 C285.4856,204.175279 274.5196,240.768279 249.7796,263.635279 C202.8726,300.892279 137.6166,262.094279 94.6986,234.915279 L93.5856,236.576279 C137.1496,264.294279 203.5066,303.209279 251.0896,265.147279 C276.3606,241.820279 287.5566,204.568279 282.2596,170.847279 C274.8326,110.445279 223.5806,62.886279 219.8746,1.51627902" id="Fill-21" fill="#FFF" blush:i="0.1.0.0.0.2.4"/></g></g></g><g id="Body" transform="translate(17.000000, -31.000000) scale(1 1)" blush:width="863" blush:height="528" blush:component="Body" blush:i="0.1.0.1" blush:value="Sweats Open Arms"><g id="Body/Sweats Open Arms" stroke="none" stroke-width="1" fill="none" fill-rule="evenodd" blush:i="0.1.0.1.0"><g id="Right-Arm" transform="translate(618.442533, 229.483602) rotate(-13.000000) translate(-618.442533, -229.483602) translate(429.442533, 114.983602)" blush:i="0.1.0.1.0.0"><path d="M342.541289,187.743347 C326.910289,191.836347 303.699289,189.846347 289.357289,194.687347 C238.559289,212.680347 180.701289,224.619347 128.506289,203.387347 C96.3992891,190.117347 70.6652891,164.611347 51.9822891,136.551347 C37.9812891,115.590347 27.2752891,93.1963468 18.5502891,69.9293468 C11.1882891,50.7343468 18.3742891,29.4563468 38.5122891,24.1903468 C56.7412891,19.3603468 73.9952891,29.5873468 80.3732891,46.8233468 C87.4822891,65.8393468 96.2372891,84.0083468 106.810289,99.8083468 C145.030289,162.627347 207.091289,154.460347 267.812289,132.285347 C291.775289,123.020347 320.547289,113.292347 344.412289,113.403347 C362.491289,114.243347 376.218289,115.968347 377.718289,123.811347 C378.264289,134.125347 368.695289,130.839347 356.856289,134.508347 C362.970289,138.209347 370.224289,144.108347 364.643289,150.640347 C362.449289,153.148347 358.749289,154.590347 355.043289,153.163347 C348.560289,150.629347 342.448289,143.702347 328.740289,144.316347 C319.320289,148.784347 316.804289,164.880347 326.022289,168.956347 C329.739289,170.857347 334.618289,171.042347 338.855289,171.045347 C348.378289,170.718347 351.846289,185.047347 342.541289,187.743347" id="SKIN-DARKER" fill="#d29863" blush:color="Skin-600" blush:i="0.1.0.1.0.0.0"/><path d="M342.541289,187.743347 C326.910289,191.836347 303.699289,189.846347 289.357289,194.687347 C238.559289,212.680347 180.701289,224.619347 128.506289,203.387347 C96.3992891,190.117347 70.6652891,164.611347 51.9822891,136.551347 C37.9812891,115.590347 27.2752891,93.1963468 18.5502891,69.9293468 C11.1882891,50.7343468 18.3742891,29.4563468 38.5122891,24.1903468 C56.7412891,19.3603468 73.9952891,29.5873468 80.3732891,46.8233468 C87.4822891,65.8393468 96.2372891,84.0083468 106.810289,99.8083468 C145.030289,162.627347 207.091289,154.460347 267.812289,132.285347 C291.775289,123.020347 320.547289,113.292347 344.412289,113.403347 C362.491289,114.243347 376.218289,115.968347 377.718289,123.811347 C378.264289,134.125347 368.695289,130.839347 356.856289,134.508347 C362.970289,138.209347 370.224289,144.108347 364.643289,150.640347 C362.449289,153.148347 358.749289,154.590347 355.043289,153.163347 C348.560289,150.629347 342.448289,143.702347 328.740289,144.316347 C319.320289,148.784347 316.804289,164.880347 326.022289,168.956347 C329.739289,170.857347 334.618289,171.042347 338.855289,171.045347 C348.378289,170.718347 351.846289,185.047347 342.541289,187.743347" id="SKIN-DARKER" fill="#d29863" blush:color="Skin-600" blush:i="0.1.0.1.0.0.1"/><path d="M271.726389,124.421647 C263.116389,127.732647 254.476389,130.636647 245.868389,133.210647 C209.721389,128.488647 170.801389,142.749647 140.115389,113.753647 C124.248389,100.025647 111.598389,81.1806468 101.259389,63.0776468 C72.5927977,14.2024092 60.1310047,0 32.9129471,0 C5.69488945,0 -5.40261093,41.7106468 4.30438907,65.8116468 C9.72538907,88.1616468 18.9403891,112.543647 30.8733891,133.665647 C49.0233891,166.223647 75.9573891,196.137647 110.646389,213.068647 C149.096389,232.187647 194.961389,232.042647 235.338389,219.462647 C246.633389,215.779647 258.116389,211.856647 267.152389,205.127647 C277.835389,201.938647 288.295389,198.399647 298.498389,194.481647 L271.726389,124.421647 Z" id="Fill-4" fill="#2DB386" blush:i="0.1.0.1.0.0.2"/><path d="M246.578389,134.567647 L267.932389,206.463647 C278.530389,203.286647 288.911389,199.770647 299.034389,195.883647 L272.262389,125.825647 C263.714389,129.109647 255.133389,131.998647 246.578389,134.567647" id="Fill-7" fill="#25996F" blush:i="0.1.0.1.0.0.3"/></g><g id="Body" transform="translate(238.000000, 149.000000)" blush:i="0.1.0.1.0.1"><path d="M278.106708,192.298647 C205.538716,197.378937 1.44114734,174.139406 3.75109927,161.20524 C8.33256874,135.552114 16.2642525,95.4663653 27.5461506,40.9479927 C27.5461506,18.3333745 47.7038086,-0.000770909091 72.5687342,-0.000770909091 L211.895593,-0.000770909091 C236.760519,-0.000770909091 256.917117,18.3333745 256.917117,40.9479927 C266.870755,93.2351517 274.102974,132.007446 278.613775,157.264876 C280.224412,166.283349 280.055389,177.961273 278.106708,192.298647 Z" id="Sweat-Body" fill="#34D1A1" blush:i="0.1.0.1.0.1.0"/><path d="M0.000317843866,195.189749 C100.650875,230.844295 209.77727,197.117022 284.463162,195.189749 L279.673255,156.30124 C206.510894,158.917513 101.819481,190.863022 3.67459294,157.11744 L0.000317843866,195.189749 Z" id="Bottom" fill="#2DB386" blush:i="0.1.0.1.0.1.1"/></g><g id="Left-Arm" transform="translate(92.000000, 149.000000)" blush:i="0.1.0.1.0.2"><path d="M73.7984,302.1656 C75.4354,287.3036 71.7194,269.7966 77.3514,255.4926 C94.0364,218.5986 114.6564,183.6546 138.4314,150.6676 C157.9434,123.5796 179.5474,97.8456 202.7354,73.4136 C207.9904,67.9276 210.3174,60.5686 209.7774,52.8276 C210.4384,35.4396 194.0274,18.1116 176.2674,19.4396 C140.5084,17.0866 43.4524,171.0876 27.6244,206.3616 C23.2384,215.1606 18.0894,226.2596 14.0774,235.2526 C-0.3686,264.6906 -7.9236,316.5946 12.5344,340.8116 C15.3544,345.6386 24.8784,344.9346 25.4604,339.0486 C25.6554,337.0956 24.7924,330.1826 24.5194,321.6836 C27.4664,324.8656 30.7614,326.8666 33.6404,328.1446 C40.4424,331.0916 46.3844,322.2576 42.3284,316.6156 C38.6364,311.0266 30.5254,306.3606 29.2034,292.7106 C32.7784,282.7026 48.4634,279.6396 53.3704,288.1406 C55.5994,291.5016 56.3844,295.9666 56.9234,299.7836 C57.6824,307.9936 72.2034,310.5066 73.7984,302.1656" id="SKIN" fill="#edb98a" blush:color="Skin-500" blush:i="0.1.0.1.0.2.0"/><path d="M8.2814,233.5583 C12.4524,224.0453 17.3674,213.6403 21.9294,204.3143 C26.1924,144.0153 102.270719,51.2268396 153.004719,19.3678396 C174.444479,2.42646732 209.853631,-0.00118877096 223.867009,-0.00118877096 C246.54705,-0.00118877096 234.45534,55.8172246 215.5024,77.4693 C192.0664,109.8693 164.4614,143.4023 139.9364,175.8263 C123.2444,196.0743 108.5604,220.3853 89.6304,237.3143 C84.7904,245.1973 81.0224,255.1483 77.0044,263.5933 L8.2814,233.5583 Z" id="Fill-14" fill="#34D1A1" blush:i="0.1.0.1.0.2.1"/><path d="M23.1118,205.2955 L90.2708,238.6835 C86.3218,246.8325 82.0138,255.8955 78.3808,264.1945 L9.6578,234.1585 C13.7668,224.7695 18.6338,214.5095 23.1118,205.2955" id="Fill-16" fill="#2DB386" blush:i="0.1.0.1.0.2.2"/></g></g></g><g id="Head" transform="translate(338.000000, -61.000000) scale(1 1)" blush:width="127" blush:height="211" blush:component="Head" blush:i="0.1.0.2" blush:value="Afro"><g id="Head/Afro" stroke="none" stroke-width="1" fill="none" fill-rule="evenodd" blush:i="0.1.0.2.0"><path d="M60,44 C14.0627304,44 -9,67.357571 -9,114.051992 C-9,160.746412 14.0627304,172 60,172 C105.93727,172 129,160.746412 129,114.051992 C129,67.357571 105.93727,44 60,44 Z" id="Fill-3" fill="#000" blush:i="0.1.0.2.0.0"/><g id="head" transform="translate(22.000000, 72.000000)" blush:i="0.1.0.2.0.1"><g fill="#edb98a" id="SKIN" blush:color="Skin-500" blush:i="0.1.0.2.0.1.0"><path d="M13,62 L58,62 L58,113.633 C58,127.538 47.926,138.81 35.5,138.81 C23.074,138.81 13,127.538 13,113.633 L13,62 Z" blush:i="0.1.0.2.0.1.0.0"/><path d="M60.0525,94 L55.0655,94 C31.8335,94 13.0005,75.167 13.0005,51.935 L13.0005,32.203 C13.0005,14.418 27.4175,0 45.2035,0 L50.7965,0 C68.5825,0 83.0005,14.418 83.0005,32.203 L83.0005,71.052 C83.0005,83.726 72.7265,94 60.0525,94" blush:i="0.1.0.2.0.1.0.1"/><path d="M25,58.5 C25,65.403 19.404,71 12.5,71 C5.596,71 0,65.403 0,58.5 C0,51.597 5.596,46 12.5,46 C19.404,46 25,51.597 25,58.5" blush:i="0.1.0.2.0.1.0.2"/></g><path d="M10.067,53.1685 C10.9718309,53.1685 12.2239875,53.3771928 13.5088204,54.0196092 C15.6553998,55.0928989 17.0130325,57.055328 17.10411,59.9021045 L17.109,60.2105 L14.109,60.2105 C14.109,58.3751144 13.4076866,57.3231443 12.1671796,56.7028908 C11.7065142,56.4725581 11.1976823,56.3199085 10.686339,56.2346846 C10.4347302,56.1927498 10.2385731,56.1747448 10.1250097,56.169908 L10.067,56.1685 L10.067,53.1685 Z" id="ear-line" fill="#000" blush:i="0.1.0.2.0.1.1"/><path d="M34.7507501,96.3316762 C25.4557924,93.0435693 20.8185822,84.7386742 18.9822222,73.5680961 C26.2532122,85.6701724 39.4406226,93.8132264 54.5439426,93.9967331 L55.0655,93.9999 L58,93.9999 C50.0632106,98.2297391 42.3134606,99.0069978 34.7507501,96.3316762 Z" id="SHADOW" fill="#000" opacity=".12" blush:i="0.1.0.2.0.1.2"/></g><path d="M19.0235388,90.2974915 C18.0946008,77.6615932 44.8808128,67 60.3367811,67 L94.3260463,67 L110,94.0239492 L60.0298015,94.0239492 C53.2572536,108.828644 43.3389157,118 34.3395164,118 C25.3401171,118 19.7014935,99.5172542 19.0235388,90.2974915 Z" id="Fill-17" fill="#000" blush:i="0.1.0.2.0.2"/></g></g><g id="Expression" transform="translate(385.000000, 34.000000) scale(1 1)" fill="#000" blush:width="61" blush:height="61" blush:component="Expression" blush:i="0.1.0.3" blush:value="Happy"><g id="Expression/Happy" stroke="none" stroke-width="1" fill="none" fill-rule="evenodd" blush:i="0.1.0.3.0"><path d="M20.5607,22 C20.5607,20.343 19.2177,19 17.5607,19 C15.9037,19 14.5607,20.343 14.5607,22 C14.5607,23.657 15.9037,25 17.5607,25 C19.2177,25 20.5607,23.657 20.5607,22" id="Fill-1" fill="#000" blush:i="0.1.0.3.0.0"/><path d="M46.5607,22 C46.5607,20.343 45.2177,19 43.5607,19 C41.9037,19 40.5607,20.343 40.5607,22 C40.5607,23.657 41.9037,25 43.5607,25 C45.2177,25 46.5607,23.657 46.5607,22" id="Fill-3" fill="#000" blush:i="0.1.0.3.0.1"/><polygon id="Stroke-5" fill="#000" points="33.1977829 19.396766 36.1476171 18.850434 40.4350211 41.9996 30.5607 41.9996 30.5607 38.9996 36.828 38.999" blush:i="0.1.0.3.0.2"/><path d="M21.9219,41.586 C21.9219,45.2602625 25.6639817,48.6581933 29.6815435,48.7900329 L29.9229,48.794 L29.9229,51.794 C24.3252295,51.794 19.0961019,47.2280163 18.9261594,41.8552911 L18.9219,41.586 L21.9219,41.586 Z" id="Stroke-7" fill="#000" blush:i="0.1.0.3.0.3"/><path d="M23.0607,9 L23.0607,12 C19.8342736,12 16.8913939,12.8655529 14.2891644,14.3112359 C13.508469,14.7449556 12.8086718,15.2043948 12.1956619,15.6654963 L11.8964164,15.8960741 C11.548672,16.1706093 11.3051282,16.3844813 11.1717567,16.5115787 L11.1213602,16.5606602 L9.00003983,14.4393398 C9.71719288,13.7221868 11.0118484,12.7000903 12.8322356,11.6887641 C15.7235813,10.0824609 18.9894549,9.08904431 22.5704367,9.00569674 L23.0607,9 Z" id="Stroke-9" fill="#000" blush:i="0.1.0.3.0.4"/><path d="M37.0607,9 C40.8342736,9 44.2663939,10.0094471 47.2891644,11.6887641 C48.9957774,12.6368824 50.2403215,13.5944668 50.980139,14.3013772 L51.1213602,14.4393398 L49.0000398,16.5606602 L48.8084832,16.3819961 C48.6965748,16.2822525 48.549249,16.1566104 48.3676199,16.0099419 L48.2249836,15.8960741 C47.5437467,15.3582556 46.7430469,14.8172422 45.8322356,14.3112359 C43.3601176,12.937837 40.5805627,12.0880056 37.5425302,12.006456 L37.0607,12 L37.0607,9 Z" id="Stroke-11" fill="#000" blush:i="0.1.0.3.0.5"/></g></g><g id="Accessories" transform="translate(372.000000, 56.000000) scale(1 1)" fill="#000" blush:width="76" blush:height="48" blush:component="Accessories" blush:i="0.1.0.4" blush:value="None"><g id="Accessories/None" stroke="none" stroke-width="1" fill="none" fill-rule="evenodd" fill-opacity="0" blush:i="0.1.0.4.0"/></g><g id="Glasses" transform="translate(364.000000, 42.000000) scale(1 1)" fill="#000" blush:width="95" blush:height="32" blush:component="Glasses" blush:i="0.1.0.5" blush:value="None"><g id="Glasses/None" stroke="none" stroke-width="1" fill="none" fill-rule="evenodd" fill-opacity="0" blush:i="0.1.0.5.0"/></g></g></g><g transform="translate(656.000000, 237.000000) scale(1 1)" blush:has-customizable-colors="true" blush:width="904" blush:height="859" id="Master/Character/Standing" blush:component="Master/Character/Standing" blush:i="0.2" blush:value="Standing"><g id="Master/Character/Standing" stroke="none" stroke-width="1" fill="none" fill-rule="evenodd" blush:has-customizable-colors="true" blush:i="0.2.0"><g id="Legs" transform="translate(50.000000, 263.000000) scale(1 1)" blush:width="693" blush:height="596" blush:component="Legs" blush:i="0.2.0.0" blush:value="Loose Pants Jump"><g id="Legs/Loose Pants Jump" stroke="none" stroke-width="1" fill="none" fill-rule="evenodd" blush:i="0.2.0.0.0"><g id="Group-15" transform="translate(69.000000, -1.000000)" blush:i="0.2.0.0.0.0"><path d="M147.4318,216.1183 L189.8528,165.4953 C192.1608,162.7603 195.9388,162.1533 198.4048,164.1453 C213.1598,176.0493 229.0328,187.2003 244.9528,196.5013 C252.9218,201.1523 260.9408,205.3563 268.8368,208.8803 C276.7318,212.4453 284.5028,215.2493 291.7698,217.2113 C296.0998,218.3583 300.2288,219.1633 303.9868,219.5973 C304.8918,219.6753 305.9078,219.8413 306.6768,219.8523 C307.4898,219.8973 308.3808,219.9913 308.9178,219.9623 C309.2288,219.9663 309.5388,219.9763 309.8498,219.9953 C310.1608,220.0013 310.4698,219.9643 310.7808,219.9623 L311.7128,219.9523 C312.0218,219.9173 312.3308,219.8883 312.6408,219.8673 C315.1138,219.6673 317.5788,219.2173 319.9238,218.3883 C322.2638,217.5523 324.4858,216.3883 326.4958,214.9313 C326.7458,214.7483 327.0008,214.5713 327.2608,214.3993 L327.9658,213.7883 L328.6908,213.2033 C328.9068,212.9783 329.1268,212.7613 329.3538,212.5483 L330.0398,211.9183 L330.6728,211.2353 C330.8818,211.0053 331.1008,210.7843 331.3018,210.5473 C331.4878,210.2963 331.6788,210.0523 331.8758,209.8113 C332.0728,209.5713 332.2748,209.3363 332.4838,209.1043 L333.0108,208.3373 C333.3748,207.8343 333.7778,207.3563 334.0688,206.8043 C334.2318,206.5403 334.4008,206.2803 334.5768,206.0233 L334.8468,205.6343 L335.2008,204.9663 L336.6478,202.3113 C340.4918,195.2143 342.8848,188.2983 344.0478,181.2663 C344.2348,180.3913 344.2318,179.4773 344.3568,178.5893 C344.4368,177.6893 344.6098,176.8113 344.6578,175.8973 C344.6678,174.9753 344.6938,174.0553 344.7338,173.1353 L344.8038,171.7543 C344.8288,171.2923 344.7638,170.8043 344.7528,170.3303 C344.7068,169.3763 344.6748,168.4223 344.6558,167.4663 L344.6428,166.7493 L344.5568,166.0073 L344.3918,164.5173 C344.2768,163.5203 344.2138,162.5383 344.0888,161.5263 L343.5598,158.4273 C343.3168,156.3893 342.6778,154.1873 342.2508,152.0483 C342.0638,150.9873 341.6628,149.8443 341.3788,148.7393 L340.4548,145.3893 C338.9908,140.8193 337.4208,136.1613 335.4118,131.2903 C331.4948,121.5673 326.6068,111.3913 321.0258,100.4813 L312.3388,83.5283 L310.0808,79.0633 L307.8028,74.5073 L305.5058,69.7663 C304.7418,68.1753 303.9768,66.6203 303.2108,64.9163 L374.8738,31.6693 C375.4378,32.9383 376.0958,34.2693 376.7288,35.5853 L378.6478,39.5503 C380.0148,42.2643 381.3068,44.9073 382.7448,47.6963 L391.4328,64.6523 C397.3508,76.2433 403.3728,88.5823 408.7138,101.8293 C411.4148,108.4193 413.8338,115.3893 416.0668,122.5013 C416.5978,124.3053 417.0918,126.1453 417.5998,127.9683 C418.0838,129.8113 418.6488,131.5853 419.0428,133.4993 C419.8658,137.2923 420.8218,140.9853 421.3978,144.9243 C424.0658,160.3893 424.7518,177.0953 422.0838,193.5693 L420.9278,199.7043 L420.3258,202.7653 C420.1298,203.7883 419.8128,204.7743 419.5578,205.7803 L417.9078,211.7783 C417.6128,212.7693 417.3788,213.7913 417.0258,214.7543 L415.9898,217.6573 L413.8738,223.4483 L413.3358,224.8923 C413.1428,225.3643 412.9268,225.8213 412.7228,226.2853 L411.4738,229.0573 L408.9388,234.5863 C408.5308,235.5203 408.0568,236.4023 407.5708,237.2743 L406.1298,239.9053 L403.2168,245.1523 L402.4828,246.4603 L401.5748,247.8973 L399.7288,250.7683 C398.5198,252.6973 397.1758,254.5313 395.8258,256.3613 L393.7868,259.0953 L391.6188,261.7243 C385.8088,268.7103 379.1568,274.9913 371.7698,280.2573 C364.3918,285.5323 356.2818,289.7683 347.7418,292.8293 C339.1988,295.8893 330.2338,297.7313 321.1828,298.5323 L317.7848,298.8063 C316.6498,298.8663 315.5128,298.8973 314.3758,298.9353 C313.2398,298.9663 312.1038,299.0143 310.9668,299.0143 L307.5548,298.9623 C305.2188,298.9443 303.1438,298.7883 301.0108,298.6493 C298.8418,298.5343 296.8698,298.2723 294.8108,298.0633 C286.6878,297.1143 278.9428,295.5363 271.5188,293.5713 C259.1238,290.2393 247.5358,285.9193 236.5708,280.9903 C225.5808,276.0773 215.1678,270.5853 205.1298,264.7293 C195.0858,258.8793 185.4488,252.6363 176.0728,246.1093 C166.6988,239.5713 157.6198,232.7603 148.7038,225.5543 C145.6948,223.1223 145.1258,218.8503 147.4318,216.1183" id="Fill-1" fill="#543629" blush:color="Skin-600" blush:i="0.2.0.0.0.0.0"/><path d="M159.8732,243.3243 C164.9092,247.0713 170.0242,250.7183 175.2272,254.2803 L227.3142,178.2003 C221.3912,174.1483 215.5292,169.8843 209.7992,165.4863 C206.9362,163.2883 204.1062,161.0523 201.3522,158.8083 C199.9722,157.6883 198.6162,156.5633 197.3032,155.4583 L195.3862,153.8273 L193.9222,152.5543 L191.7462,154.9743 L173.0862,175.7373 C173.2782,176.0603 173.6062,176.5033 173.9272,176.9323 L174.9112,178.2353 L176.9642,180.8753 C171.6032,183.8483 166.1792,186.7483 160.6902,189.5293 L132.2892,221.1323 L108.3602,247.7563 L110.2632,249.4353 L111.7352,250.7123 L114.5292,253.0933 C116.3592,254.6393 118.1452,256.1173 119.9352,257.5803 C123.6952,260.6433 130.2882,257.5343 137.6112,253.4273 C144.9452,249.3223 152.9982,244.2403 159.8732,243.3243" id="Fill-3" fill="#0A1B45" blush:i="0.2.0.0.0.0.1"/><path d="M268,3 C267.957,10.832 268.5101,15.1901 269.5401,21.8431 L270.4121,26.6181 L270.8731,29.0021 C271.0321,29.7861 271.1831,30.6251 271.3641,31.3141 C272.0671,34.2021 272.8001,37.0861 273.5621,39.9631 C276.6941,50.9181 280.2961,60.1851 283.8441,68.6601 C290.9931,85.4151 297.9291,98.9581 303.7991,111.4881 C305.2091,114.5291 306.6921,117.6461 307.9621,120.5281 C308.6031,121.9791 309.3221,123.4971 309.9011,124.8891 L311.7041,129.1121 C313.9521,134.6151 316.0551,139.9381 317.5261,144.7391 L318.1291,146.5671 C318.3321,147.1771 318.4531,147.7311 318.6231,148.3141 L319.5981,151.7591 L320.3301,154.9911 L320.7091,156.5911 L320.9471,158.0851 C321.1011,159.0701 321.3211,160.0831 321.4611,161.0341 C321.5391,161.9481 321.6351,162.8551 321.7491,163.7591 C321.9151,164.6921 321.8791,165.4971 321.9151,166.3231 L321.9811,167.5561 C322.0101,167.9661 322.0581,168.3841 322.0071,168.7451 C321.9581,169.4951 321.9351,170.2401 321.9371,170.9831 L321.9441,171.5401 L321.8661,172.0551 C321.8161,172.3961 321.7731,172.7361 321.7361,173.0761 C321.7001,173.4161 321.6721,173.7561 321.6501,174.0961 C321.6351,174.2641 321.6411,174.4381 321.6131,174.6031 L321.4961,175.0771 C321.3491,175.7091 321.2311,176.3411 321.1451,176.9761 C321.1291,177.2981 321.0241,177.6021 320.9171,177.9011 C320.8191,178.2041 320.7301,178.5071 320.6481,178.8111 C320.5661,179.1141 320.4921,179.4191 320.4261,179.7251 C320.3891,179.8781 320.3701,180.0321 320.3231,180.1851 L320.1321,180.6341 C319.6161,181.8331 319.3741,183.0581 318.6721,184.3051 C318.3661,184.9291 318.1751,185.5571 317.8541,186.2021 C317.4621,186.8531 317.0951,187.5071 316.7511,188.1721 L316.2541,189.1771 C316.0991,189.5141 315.8061,189.8501 315.5971,190.1891 C315.1421,190.8681 314.7081,191.5541 314.2941,192.2511 L313.9871,192.7741 C313.9441,192.8411 313.8681,192.9991 313.8551,192.9891 L313.7971,193.0091 C313.7251,193.0381 313.6671,193.0731 313.6221,193.1161 C313.5781,193.2361 313.3771,193.2411 313.3021,193.3311 C313.2791,193.3521 313.2611,193.3741 313.2441,193.3991 C313.2171,193.4151 313.1721,193.4161 313.1421,193.4291 C313.0741,193.4491 313.0211,193.4791 312.9791,193.5191 C312.9051,193.6081 312.7621,193.6311 312.6611,193.6871 C312.1991,193.8571 311.7221,193.9111 311.3021,193.9451 C310.8671,193.9661 310.4321,193.8211 310.0791,193.7371 C309.8841,193.5891 309.7261,193.6161 309.5631,193.4591 C309.4851,193.4661 309.4091,193.3291 309.3381,193.3231 L309.3111,193.3211 L309.1521,193.2821 L308.8281,193.2161 C308.5941,193.1671 308.4371,193.1651 308.1391,193.1061 C305.7251,192.6741 302.4981,191.9251 298.7881,190.7481 C294.1091,189.2921 288.7291,187.2291 283.0351,184.5811 C280.1871,183.2571 277.2711,181.8331 274.2941,180.2481 C271.3261,178.6921 268.3091,177.0111 265.2661,175.2221 C253.0961,168.0991 240.5651,159.4131 228.5411,149.9741 L205.3121,181.1261 C207.0641,186.9981 208.9681,192.8771 211.0231,198.7471 C204.9521,198.6841 198.8221,198.4661 192.6511,198.1041 L145.0441,261.9501 C162.0381,274.1131 179.7641,285.4051 199.1281,295.6311 C203.9641,298.1871 208.9131,300.6631 214.0011,303.0461 C219.0641,305.4421 224.2971,307.7291 229.6621,309.9161 C240.3971,314.2821 251.8031,318.2021 264.1631,321.3101 C274.1201,323.7281 284.7291,325.6101 296.1501,326.4711 C297.5801,326.5831 299.1361,326.6451 300.6211,326.7221 L302.8751,326.8211 L304.0051,326.8661 L305.2471,326.8811 C308.5581,326.9051 311.8671,326.9331 315.1671,326.7381 C321.7751,326.4931 328.3341,325.6551 334.8151,324.5261 C347.7401,322.0691 360.3021,317.8391 371.8471,311.6851 C383.3751,305.5101 393.9301,297.5801 403.0521,288.2451 L406.3931,284.6671 C407.4951,283.4641 408.6061,282.2711 409.6291,280.9981 C411.6901,278.4661 413.8131,275.9871 415.6871,273.3131 C417.5931,270.6631 419.5121,268.0261 421.2201,265.2451 L423.8031,261.0921 L424.4381,260.0481 C424.6581,259.6881 424.7751,259.4401 424.9491,259.1301 L425.9091,257.3541 L429.6871,250.2251 C430.2951,249.0201 430.9501,247.8691 431.5091,246.6151 L433.1771,242.8541 C434.2791,240.3431 435.3621,237.8251 436.4241,235.3021 C437.4371,232.7321 438.3171,230.0501 439.2351,227.4191 C441.1551,222.2011 442.5031,216.6631 443.8711,211.1851 L444.3741,209.1261 C444.5221,208.4341 444.6401,207.7311 444.7711,207.0341 L445.5201,202.8401 L446.2291,198.6421 C446.4681,197.2431 446.6901,195.8441 446.8081,194.4351 C447.0981,191.6211 447.3621,188.8061 447.6021,185.9911 L447.7751,183.8811 C447.8181,183.1801 447.8231,182.4831 447.8471,181.7841 L447.9401,177.5951 L447.9961,173.4081 L448.0071,171.3171 L447.9151,169.2631 C447.7881,166.5231 447.6391,163.7861 447.4681,161.0541 C447.4071,159.6731 447.2441,158.3511 447.0891,157.0221 L446.6141,153.0361 C446.2851,150.3821 445.9781,147.7011 445.4721,145.1761 L444.0411,137.5031 C443.5031,135.0011 442.8841,132.5771 442.2901,130.1161 L441.3791,126.4431 L440.3501,122.9151 C439.6531,120.5731 438.9591,118.2181 438.2361,115.8991 L435.9131,109.1831 C435.5181,108.0751 435.1421,106.9251 434.7261,105.8551 L433.4761,102.6471 C430.1771,93.9801 426.5241,86.0751 422.8621,78.3981 L420.0861,72.7741 C419.1601,70.8781 418.2291,69.1441 417.2981,67.3221 C415.4321,63.6611 413.5901,60.2691 411.7381,56.7881 C404.4171,43.2221 397.520799,30.6857399 392.1391,20.1471 C389,14 387,11 385,7 C383,3 382.183,1.666 382,1 C381.99,0.947 267.962,1.112 268,3 Z" id="Fill-5" fill="#CC2935" blush:i="0.2.0.0.0.0.2"/><path d="M39.0363,232.3644 L81.5343,181.8064 C83.8393,179.0734 87.6453,178.4874 90.1203,180.4994 C104.9493,192.5224 120.8653,203.8624 136.9163,213.5734 C152.9563,223.2744 169.4333,231.4874 184.9693,236.6394 C195.2243,240.0754 205.0153,241.9804 212.8823,242.1304 L214.3483,242.1674 L215.7353,242.1224 C216.6863,242.1384 217.5243,242.0204 218.3923,241.9724 L219.0323,241.9324 L219.5463,241.8504 C219.8893,241.8004 220.2323,241.7594 220.5783,241.7274 C221.2613,241.6214 221.9313,241.4604 222.6153,241.3654 C225.3053,240.7574 227.9143,239.7944 230.3313,238.4694 C232.7493,237.1474 234.9683,235.4644 236.9123,233.5084 C237.3673,232.9874 237.8233,232.4734 238.3223,231.9944 C238.8053,231.3684 239.3073,230.7414 239.8363,230.1434 C240.3543,229.4194 240.8853,228.6514 241.4383,227.9284 C241.9733,227.1484 242.4813,226.2684 243.0303,225.4604 C243.2943,225.0934 243.5913,224.5564 243.8883,224.0344 L244.7813,222.4894 C245.3953,221.4644 245.8723,220.4274 246.4403,219.4034 C246.9953,218.3784 247.4283,217.3444 247.9443,216.3254 C248.4313,215.3024 248.8283,214.2734 249.2933,213.2564 C250.9983,209.1694 252.2293,205.1024 253.1163,201.0004 C254.8973,192.8114 255.1183,184.3414 253.8543,174.9504 C253.1913,170.2574 252.1613,165.3644 250.7693,160.2894 C249.3473,155.2034 247.5743,149.9424 245.4983,144.5384 C241.3133,133.7024 235.9073,122.3404 229.8143,110.3274 C223.7353,98.2814 216.9503,85.6414 210.1983,71.3444 L281.6963,37.7434 C287.1823,49.3954 293.7373,61.6844 300.2963,74.6434 C306.8603,87.6114 313.4763,101.3024 319.2043,116.1024 C322.0543,123.5164 324.6743,131.2084 326.9053,139.2094 C329.1113,147.2274 330.9133,155.5644 332.1163,164.1724 C333.3033,172.7844 333.8353,181.6844 333.5983,190.6714 C333.3733,199.6574 332.2473,208.7294 330.3523,217.6004 C328.4453,226.4704 325.7423,235.1504 322.3243,243.3814 C321.4383,245.4174 320.5883,247.4814 319.6503,249.4814 C318.6893,251.4624 317.7733,253.4874 316.7533,255.4214 C315.7233,257.3444 314.7413,259.3214 313.6513,261.1924 L312.0263,264.0104 C311.4863,264.9484 310.9543,265.8794 310.3063,266.8724 C309.0523,268.8254 307.8473,270.7784 306.5203,272.7094 C305.1403,274.6334 303.7733,276.5484 302.3453,278.4524 C300.8073,280.3564 299.2623,282.2514 297.6823,284.1284 C295.9783,285.9894 294.2653,287.8464 292.5123,289.6624 C285.3813,296.8114 277.2643,302.9774 268.4163,307.8314 C259.5733,312.6924 250.0173,316.2334 240.1623,318.4254 C237.6883,318.9194 235.2093,319.4144 232.7163,319.7964 L228.9643,320.2894 L227.0873,320.5204 L225.2873,320.6714 C222.8983,320.8534 220.4903,321.0604 218.1493,321.0854 L214.6133,321.1674 C213.4473,321.1674 212.2953,321.1324 211.1353,321.1104 C201.8693,320.9034 192.9983,319.7884 184.5173,318.1234 C176.0313,316.4564 167.9373,314.2194 160.1413,311.6374 C148.3953,307.7264 137.3003,303.0524 126.6753,297.9014 C116.0513,292.7454 105.8713,287.1304 96.0333,281.1724 C86.1833,275.2234 76.6773,268.9324 67.4073,262.3744 C58.1373,255.8044 49.1313,248.9854 40.2703,241.7844 C37.2783,239.3524 36.7273,235.0984 39.0363,232.3644" id="Fill-8" fill="#694d3d" blush:color="Skin-500" blush:i="0.2.0.0.0.0.3"/><path d="M51.296,259.5382 C56.286,263.2842 61.341,266.9442 66.476,270.5222 L119.187,194.8712 C113.224,190.7242 107.33,186.3822 101.568,181.9232 C98.691,179.6932 95.845,177.4322 93.069,175.1632 L88.993,171.7762 L87.06,170.1272 L85.561,168.8222 L83.386,171.2432 L64.726,192.0052 C64.93,192.3402 65.251,192.7762 65.575,193.2102 L66.565,194.5182 L68.623,197.1672 C63.252,200.1282 57.821,203.0182 52.33,205.7982 L23.928,237.3992 L0,264.0242 L3.325,266.9392 L6.09,269.3022 L11.438,273.7562 C18.921,279.8412 37.634,261.3172 51.296,259.5382" id="Fill-10" fill="#0A1B45" blush:i="0.2.0.0.0.0.4"/><path d="M281,2 L179,1 C175.648,0.973 172.9803,0.4195 173.0053,2.2785 C172.9963,9.6975 173.7703,17.6885 174.9503,24.6355 C176.1283,31.6535 177.6823,38.0425 179.3853,43.9615 C181.0913,49.8905 182.9573,55.2765 184.8623,60.3895 C186.7693,65.4795 188.7283,70.3005 190.6823,74.8135 C192.6383,79.3395 194.5943,83.6635 196.5223,87.8085 C198.4463,91.9305 200.3453,95.9115 202.2023,99.7625 C205.9033,107.4315 209.4253,114.6265 212.6463,121.4625 C219.0943,135.1045 224.3273,147.4705 227.6343,158.3425 C230.9953,169.2365 232.2453,178.2925 231.9553,185.4195 C231.6383,192.6025 230.1563,198.1415 227.0223,204.6295 L226.4263,205.8445 C226.2193,206.2535 225.9673,206.6655 225.7493,207.0795 C225.3363,207.9055 224.7993,208.7485 224.3043,209.5985 C224.0733,210.0225 223.7963,210.4525 223.5053,210.8845 L222.6753,212.1885 C222.5283,212.4435 222.4273,212.5475 222.3213,212.6785 L222.0113,213.0745 C221.8083,213.3405 221.6153,213.6115 221.4303,213.8875 C221.0423,214.3075 220.6793,214.7175 220.3713,215.1105 C220.2273,215.2085 220.0973,215.3135 219.9793,215.4275 C219.8643,215.5225 219.7493,215.7295 219.6763,215.6935 C219.5003,215.7105 219.4753,215.8685 219.2923,215.8645 C219.2223,215.8835 219.1683,215.9175 219.1263,215.9645 C219.0533,215.9775 218.9713,215.9775 218.9143,216.0045 C218.4393,216.2175 217.8893,216.2105 217.4293,216.2025 C217.3853,216.2395 217.3053,216.1755 217.2493,216.1735 C217.1853,216.1495 217.1463,216.2045 217.0813,216.1675 C216.9523,216.0915 216.8633,216.1605 216.7423,216.0735 C216.6843,216.0415 216.6443,216.0905 216.5833,216.0455 C216.5243,216.0055 216.4703,215.9855 216.4183,215.9845 C216.4403,216.0035 216.1243,215.9545 215.9373,215.9485 C215.7163,215.9265 215.5463,215.9635 215.2853,215.9325 C213.3103,215.7725 210.3843,215.5205 206.5883,214.6225 C202.8163,213.7515 198.3883,212.4605 193.5723,210.6505 C188.1383,208.6205 182.2973,206.1045 176.2553,203.0485 C170.2213,200.0395 164.0073,196.5515 157.7593,192.7485 C145.2593,185.1245 132.5903,176.1655 120.4293,166.5345 L97.0453,197.5715 C98.7943,203.4695 100.6853,209.3775 102.7173,215.2805 C96.6253,215.1525 90.4813,214.8855 84.3003,214.4875 L36.3773,278.0945 C53.1613,290.2295 70.5903,301.5305 89.3643,311.8895 C98.7623,317.0555 108.4833,321.9805 118.7223,326.5295 C128.9253,331.0945 139.6933,335.2665 151.1223,338.8805 C161.3233,342.0545 172.1623,344.7285 183.7633,346.5645 C195.3383,348.4055 207.9113,349.2625 221.2133,348.5305 C222.8653,348.4505 224.5853,348.2705 226.2653,348.1295 C227.9723,347.9645 229.5803,347.8445 231.4473,347.5685 C233.2583,347.3215 235.0663,347.0595 236.8703,346.7805 C238.6753,346.5085 240.4643,346.1145 242.2563,345.7625 C245.8473,345.0815 249.3723,344.1155 252.8903,343.1535 C254.6503,342.6745 256.3733,342.0675 258.1073,341.5065 C259.8353,340.9225 261.5713,340.3725 263.2583,339.6795 C264.9543,339.0145 266.6443,338.3355 268.3273,337.6415 C270.0113,336.9515 271.6413,336.1355 273.2903,335.3675 C276.6013,333.8545 279.7643,332.0505 282.9293,330.2625 C284.5163,329.3795 286.0203,328.3545 287.5573,327.3855 C289.0723,326.3825 290.6293,325.4445 292.0813,324.3525 C295.0133,322.2065 297.9583,320.0835 300.6973,317.6965 C302.0823,316.5235 303.4693,315.3525 304.8203,314.1455 C306.1423,312.9035 307.4533,311.6495 308.7533,310.3835 C311.3923,307.8975 313.7843,305.1635 316.2133,302.4755 C317.4643,301.1155 318.4843,299.7855 319.5853,298.4315 L322.8003,294.3575 C324.7553,291.6765 326.6403,288.9915 328.4583,286.2845 L330.9833,282.2365 L332.2293,280.2045 C332.6433,279.5245 333.0703,278.8315 333.3973,278.2255 C334.7903,275.6915 336.2283,273.2435 337.5353,270.6195 C338.8603,268.0225 340.1803,265.4345 341.3913,262.7255 C342.0033,261.3795 342.6293,260.0535 343.2163,258.6885 L344.9303,254.5555 C349.4533,243.5125 352.8683,231.6575 355.0633,219.5915 C357.1943,207.5145 358.0783,195.1985 357.6343,183.2875 C357.2613,171.3425 355.6363,159.8355 353.2913,148.9675 C352.1103,143.5325 350.7223,138.2855 349.2273,133.1505 C347.6963,128.0695 346.0623,123.0925 344.3083,118.3045 C337.2863,99.1315 328.8513,82.3565 320.7383,67.0635 C316.6733,59.4225 312.6773,52.1695 308.9233,45.2535 C305.1833,38.3605 301.6903,31.7965 298.7203,25.7315 C295.7543,19.6845 293.3203,14.0945 291.7263,9.5545 C290.9383,7.3015 290.3593,5.3255 289.9773,3.7605 C289.5953,2.1415 288.126,3.363 288,2 C288.001,1.703 286.35,2.026 283,2 L281,2 Z" id="Fill-12" fill="#FA3239" blush:i="0.2.0.0.0.0.5"/></g><path d="M243,0 C243,55.228475 289.562386,100 347,100 C404.437614,100 451,55.228475 451,0" id="Waist" fill="#FA3239" blush:i="0.2.0.0.0.1"/></g></g><g id="Body" transform="translate(17.000000, -31.000000) scale(1 1)" blush:width="863" blush:height="528" blush:component="Body" blush:i="0.2.0.1" blush:value="Tank Top Stride"><g id="Body/Tank Top Stride" stroke="none" stroke-width="1" fill="none" fill-rule="evenodd" blush:i="0.2.0.1.0"><g id="Group-36" transform="translate(102.000000, 148.000000)" blush:i="0.2.0.1.0.0"><path d="M653.8555,37.4621 C657.5355,40.1491 660.4195,43.5321 662.3485,47.5251 C663.3075,49.5151 664.0525,51.6751 664.5035,53.9211 C664.9365,56.1501 665.1125,58.4971 665.0255,60.9291 C664.9615,63.3821 664.5435,65.8231 663.8735,68.3131 C663.5385,69.5581 663.1375,70.8101 662.6715,72.0661 C662.1915,73.3031 661.6215,74.5131 660.9995,75.7331 C660.3745,76.9481 659.6855,78.1591 658.9345,79.3581 C658.1775,80.5481 657.3195,81.6711 656.4215,82.8041 C655.5205,83.9301 654.5585,85.0341 653.5405,86.1121 C652.4985,87.1521 651.3935,88.1551 650.2385,89.1281 C647.1285,91.8161 643.8645,94.2411 640.6265,96.7161 C637.3295,99.0751 634.0335,101.4481 630.6325,103.6001 C628.9475,104.7081 627.2545,105.8041 625.5275,106.8141 C623.8065,107.8391 622.0935,108.8901 620.3595,109.8821 C616.8705,111.8141 613.3815,113.7591 609.8215,115.4941 C606.2925,117.3251 602.6835,118.9031 599.0935,120.5461 C595.4715,122.0661 591.8555,123.6251 588.1875,124.9671 C584.5405,126.4041 580.8415,127.6071 577.1555,128.8761 C573.4445,130.0121 569.7435,131.2191 566.0025,132.1921 C536.1325,140.3621 505.4235,143.1631 474.8905,141.0301 C467.2555,140.4391 459.6295,139.6031 452.0275,138.4041 C444.4285,137.1561 436.8475,135.6741 429.3185,133.7571 C421.7935,131.8161 414.3005,129.6251 406.8985,126.9451 C399.5005,124.2541 392.1605,121.2691 384.9595,117.7691 C377.7655,114.2571 370.6825,110.3681 363.7945,105.9891 C356.9255,101.5661 350.2485,96.6941 343.8505,91.3451 C331.1265,80.5621 319.5075,67.7821 310.2935,53.1501 C309.4475,51.8021 308.6425,50.4541 307.9455,49.0671 C307.2745,47.6651 306.6685,46.2531 306.1275,44.8411 C305.0045,42.0431 304.3275,39.1491 303.8715,36.3491 C303.3765,33.5661 303.3275,30.7751 303.4735,28.1381 C303.5535,26.8171 303.6815,25.5341 303.8955,24.2801 C304.1375,23.0171 304.4385,21.7921 304.7955,20.6111 C305.5225,18.2471 306.4245,16.0751 307.6255,14.0871 C308.8355,12.0971 310.2455,10.3161 311.8305,8.7651 C314.9995,5.6601 318.8705,3.4871 323.2535,2.2491 C327.6385,1.0101 332.1165,0.7881 336.3835,1.2101 C338.5185,1.4231 340.6015,1.8001 342.5965,2.3121 C344.6045,2.8201 346.6195,3.4281 348.4725,4.1691 C349.4055,4.5371 350.3085,4.9351 351.1795,5.3611 C352.0795,5.7761 352.9725,6.2081 353.8165,6.6731 C355.5195,7.5981 357.0305,8.6591 358.5605,9.7531 C360.0535,10.8661 361.3425,12.1201 362.6395,13.4211 C363.2655,14.0811 363.8475,14.7781 364.3835,15.5141 C364.9475,16.2331 365.5095,16.9681 366.0015,17.7591 C371.3755,26.3321 378.3465,34.0341 386.3775,40.8721 C390.4395,44.2551 394.7625,47.4181 399.3075,50.3581 C403.8855,53.2631 408.7045,55.9051 413.6745,58.3431 C433.6645,67.9871 456.4655,73.5281 479.6005,75.1981 C502.7585,76.8341 526.3685,74.6321 548.5085,68.5541 C570.6265,62.4851 591.3065,52.4241 607.8385,38.5481 C613.9035,33.4801 621.3115,31.0591 629.4765,30.6911 C631.4965,30.5971 633.5765,30.6591 635.6795,30.8801 C637.7635,31.0871 639.8315,31.4231 641.9135,31.9561 C646.0635,33.0171 650.1745,34.7761 653.8555,37.4621" id="SKIN-DARKER" fill="#543629" blush:color="Skin-600" blush:i="0.2.0.1.0.0.0"/><path d="M686.1865,30.8391 C688.3895,31.9881 689.7525,34.1901 690.1235,36.8921 C690.3095,38.2411 690.2485,39.7121 689.9305,41.2181 C689.5965,42.7111 688.9475,44.2031 688.0665,45.6481 C684.2395,51.9561 679.9025,57.9151 675.3395,63.6461 C673.0045,66.4611 670.6845,69.2971 668.1885,71.9441 C665.7645,74.6761 663.1895,77.2241 660.6165,79.7781 C659.3485,81.0831 657.9865,82.2551 656.6665,83.4891 C655.3275,84.6931 654.0265,85.9601 652.6445,87.0991 C649.9025,89.4131 647.1715,91.7551 644.3225,93.8931 C638.7005,98.3101 632.8235,102.2621 626.8635,106.0091 C624.0965,107.6571 621.0915,108.3391 618.4725,107.9131 C615.8515,107.5001 613.6705,106.1301 612.4815,103.9471 C611.2925,101.7651 611.2945,99.1961 612.1985,96.8391 C613.1115,94.4871 614.8605,92.2051 617.3915,90.7021 C622.8365,87.2751 628.2025,83.6751 633.3045,79.6581 C635.8995,77.7181 638.3685,75.5911 640.8565,73.4951 C642.1145,72.4641 643.2825,71.3161 644.4965,70.2281 C645.6875,69.1101 646.9275,68.0541 648.0675,66.8741 C650.3865,64.5661 652.7175,62.2701 654.8955,59.8081 C657.1505,57.4251 659.2285,54.8701 661.3325,52.3411 C665.4285,47.1891 669.3275,41.8471 672.7505,36.1911 C673.5405,34.8961 674.5335,33.8101 675.5845,32.8941 C676.6205,31.9681 677.7715,31.2471 678.9735,30.7551 C681.3745,29.7731 683.9835,29.6891 686.1865,30.8391" id="SKIN-DARKER" fill="#543629" blush:color="Skin-600" blush:i="0.2.0.1.0.0.1"/><path d="M677.4365,11.8069 C679.7305,12.7629 681.3395,14.7259 682.0445,17.2039 C682.7995,19.6989 682.4385,22.6159 681.0955,25.3819 C675.7625,36.0819 669.1065,46.1109 661.5125,55.2509 C660.5325,56.4249 659.4105,57.3849 658.2135,58.0869 C656.9865,58.7609 655.6995,59.1929 654.4355,59.3699 C651.9035,59.7249 649.4705,59.0469 647.6705,57.3329 C645.8705,55.6199 645.0175,53.2209 645.035221,50.7879 C645.0445,49.5699 645.2755,48.3409 645.7305,47.1669 C646.1535,45.9659 646.7845,44.8059 647.6555,43.7629 C654.4095,35.6339 660.3025,26.7589 665.0205,17.2829 C666.2025,14.8369 668.2445,13.0869 670.4065,12.0529 C672.6115,11.0469 675.1425,10.8509 677.4365,11.8069" id="SKIN-DARKER" fill="#543629" blush:color="Skin-600" blush:i="0.2.0.1.0.0.2"/><path d="M663.4971,3.7219 C665.8061,4.6419 667.4761,6.4549 668.2741,8.7259 C669.0731,10.9879 669.0421,13.7259 667.7821,16.1879 C663.0911,25.8369 657.3531,34.9959 650.6141,43.3349 C648.8341,45.4429 646.5101,46.7589 644.0871,46.9749 C641.6701,47.2059 639.2971,46.4659 637.4721,44.7809 C635.6461,43.0929 634.6881,40.8049 634.5601,38.5349 C634.4491,36.2659 635.0201,33.8959 636.5861,32.0579 C642.4951,24.7489 647.4851,16.7609 651.5821,8.3429 C652.6841,6.2039 654.4161,4.6049 656.5571,3.7569 C658.6901,2.9139 661.1881,2.8029 663.4971,3.7219" id="SKIN-DARKER" fill="#543629" blush:color="Skin-600" blush:i="0.2.0.1.0.0.3"/><path d="M625.6719,20.0178 C627.6409,21.5228 628.9209,23.6008 629.2859,25.7698 C629.6079,27.8978 629.0809,30.1668 627.5759,31.8958 C621.6639,38.5618 615.0069,44.6498 607.7669,50.1078 C606.8639,50.8408 605.4369,51.0908 603.9289,51.1498 C602.3989,51.1828 600.7789,51.0148 599.2269,50.6618 C596.1389,49.9838 593.6369,48.9348 593.6369,48.9348 C595.8609,47.4618 595.3969,45.1348 595.2549,42.4798 C595.1819,41.1498 595.2019,39.7518 595.6969,38.3678 C595.9409,37.6698 596.3239,36.9968 596.8379,36.2988 C597.3429,35.5928 598.0119,34.8938 598.9009,34.2088 C604.4719,29.8578 609.5549,25.1058 614.0719,19.9958 C615.3509,18.5218 617.2139,17.7998 619.3449,17.8228 C621.4199,17.8168 623.6919,18.5038 625.6719,20.0178" id="SKIN-DARKER" fill="#543629" blush:color="Skin-600" blush:i="0.2.0.1.0.0.4"/><path d="M645.6846,4.4719 C647.9306,5.5339 649.5506,7.3389 650.3176,9.4819 C651.1286,11.6399 650.9156,14.0459 649.7346,16.1929 C641.6826,30.4949 630.7466,43.1499 617.8796,53.6239 C615.9606,55.1919 613.5266,55.7349 611.3046,55.4169 C609.0526,55.0739 606.9316,53.7769 605.4896,51.7669 C604.0326,49.7399 603.5026,47.3999 603.6906,45.2169 C603.8576,43.0039 604.8296,41.0429 606.5066,39.6729 C617.7926,30.4769 627.1666,19.5789 634.0596,7.3439 C635.0636,5.5099 636.9016,4.3499 638.9336,3.7879 C641.0046,3.2549 643.4376,3.4099 645.6846,4.4719" id="SKIN-DARKER" fill="#543629" blush:color="Skin-600" blush:i="0.2.0.1.0.0.5"/><path d="M385.623,150.5559 L161.142,150.5559 L161.142,43.4939 C161.142,34.6939 163.817,26.5179 168.399,19.7359 C176.035,8.4319 188.968,0.9999 203.636,0.9999 L333.129,0.9999 C356.598,0.9999 375.623,20.0259 375.623,43.4939 L385.623,150.5559 Z" id="Fill-14" fill="#0A1B45" blush:i="0.2.0.1.0.0.6"/><path d="M363.1416,13.0559 C363.970027,13.0559 364.6416,13.7274729 364.6416,14.5559 C364.6416,15.3355961 364.046712,15.9763487 363.28606,16.0490334 L363.1416,16.0559 L173.6416,16.0559 C172.813173,16.0559 172.1416,15.3843271 172.1416,14.5559 C172.1416,13.7762039 172.736488,13.1354513 173.49714,13.0627666 L173.6416,13.0559 L363.1416,13.0559 Z" id="Stroke-17" fill="#FFF" fill-rule="nonzero" blush:i="0.2.0.1.0.0.7"/><path d="M374.1416,43.0559 C374.970027,43.0559 375.6416,43.7274729 375.6416,44.5559 C375.6416,45.3355961 375.046712,45.9763487 374.28606,46.0490334 L374.1416,46.0559 L162.6416,46.0559 C161.813173,46.0559 161.1416,45.3843271 161.1416,44.5559 C161.1416,43.7762039 161.736488,43.1354513 162.49714,43.0627666 L162.6416,43.0559 L374.1416,43.0559 Z" id="Stroke-19" fill="#FFF" fill-rule="nonzero" blush:i="0.2.0.1.0.0.8"/><path d="M377.49961,73 C378.328037,72.9997845 379,73.6711826 379,74.4996097 C379,75.2793058 378.405481,75.9202131 377.644848,75.9930958 L377.50039,76 L162.64199,76.0559 C161.813563,76.0561155 161.1416,75.3847174 161.1416,74.5562903 C161.1416,73.7765942 161.736119,73.1356869 162.496752,73.0628042 L162.64121,73.0559001 L377.49961,73 Z" id="Stroke-21" fill="#FFF" fill-rule="nonzero" blush:i="0.2.0.1.0.0.9"/><path d="M380.499615,103 C381.328042,102.999787 382,103.671188 382,104.499615 C382,105.279311 381.405476,105.920216 380.644843,105.993096 L380.500385,106 L162.641985,106.0559 C161.813558,106.056113 161.1416,105.384712 161.1416,104.556285 C161.1416,103.776589 161.736124,103.135684 162.496757,103.062804 L162.641215,103.0559 L380.499615,103 Z" id="Stroke-23" fill="#FFF" fill-rule="nonzero" blush:i="0.2.0.1.0.0.10"/><path d="M383.49962,133 C384.328047,132.99979 385,133.671193 385,134.49962 C385,135.279316 384.405471,135.92022 383.644838,135.993097 L383.50038,136 L162.64198,136.0559 C161.813553,136.05611 161.1416,135.384707 161.1416,134.55628 C161.1416,133.776584 161.736129,133.13568 162.496762,133.062803 L162.64122,133.0559 L383.49962,133 Z" id="Stroke-25" fill="#FFF" fill-rule="nonzero" blush:i="0.2.0.1.0.0.11"/><path d="M74.6172,345.5637 C86.6662,355.4207 97.4062,353.8037 103.9432,351.2027 C107.2192,349.8897 108.5232,346.6177 108.0852,343.5397 C107.6462,340.4557 105.4722,337.5317 101.6802,336.8077 C97.9032,336.0737 93.3092,336.5767 88.1212,335.4997 C82.9252,334.4257 77.0242,331.8077 70.8132,324.6747 C67.6882,321.1217 65.6752,319.9467 64.4912,320.4297 C63.3272,320.9017 63.0032,323.0317 63.5032,325.9207 C64.4502,331.7157 68.6192,340.6247 74.6172,345.5637" id="Fill-29" fill="#543629" blush:color="Skin-600" blush:i="0.2.0.1.0.0.12"/><path d="M40.2536,313.9542 C32.2976,310.4912 25.3666,303.6322 21.9146,294.2472 C20.8346,291.4482 19.8376,288.5902 18.8396,285.7332 L17.1256,280.8272 L15.4666,275.7082 L13.8216,270.5832 L12.2876,265.3792 L10.7716,260.1652 L9.3776,254.8662 C5.6986,240.7212 2.7796,226.0482 1.1986,210.6512 C-0.3594,195.2712 -0.6054,179.1042 1.7056,162.2692 C1.9076,160.1942 2.3626,158.0502 2.7456,155.9312 L3.9676,149.5672 C4.1466,148.5142 4.4706,147.4352 4.7416,146.3662 L5.5966,143.1592 C6.1786,141.0232 6.7516,138.8902 7.3756,136.7602 C10.0996,128.1892 13.6216,119.9202 17.7626,112.1422 C21.9056,104.3642 26.6386,97.0492 31.8036,90.3152 C36.9656,83.5732 42.5166,77.3572 48.3016,71.6172 C59.8826,60.1202 72.3726,50.5982 85.1326,42.3122 C97.9116,34.0362 111.0186,27.0812 124.2676,20.9722 C137.5286,14.8902 150.9386,9.6752 164.5186,5.1632 C175.7836,1.4102 195.125958,-1.61238616 204.027958,2.31061384 C212.953958,6.22261384 219.387958,13.3796138 221.206958,22.3106138 C222.034309,26.9757091 221.788362,31.6134918 220.656708,36.0341199 C219.612187,40.1143805 217.8131,44.0096387 215.406958,47.5706138 C210.372958,54.9946138 194.8086,64.6392 185.3326,67.7942 C162.4416,75.4222 140.3236,85.2472 120.9866,97.7242 C101.7096,110.1642 85.3136,125.5392 76.0286,143.1442 C73.6936,147.5342 71.7776,152.0462 70.2996,156.6752 L69.3436,160.2572 C69.0436,161.4642 68.6346,162.6142 68.4016,163.8612 L67.7036,167.6102 C67.4766,168.8642 67.1676,170.0832 67.0706,171.4032 C65.6586,181.6712 65.7046,192.7022 66.8586,203.9622 C68.0116,215.2312 70.2506,226.7322 73.2446,238.2202 L74.3716,242.5302 L75.6296,246.8382 L76.8946,251.1462 L78.2796,255.4452 L79.6676,259.7452 L81.1286,263.9152 C81.9776,266.3452 82.8196,268.7742 83.7566,271.1902 C86.6976,279.2082 86.3256,287.7592 83.0986,295.4542 C79.9296,303.1042 73.9396,309.8842 65.6416,313.6692 C57.3586,317.4472 48.2816,317.4022 40.2536,313.9542 Z" id="SKIN" fill="#694d3d" blush:color="Skin-500" blush:i="0.2.0.1.0.0.13"/><path d="M82.7608,268.55 C81.0628,263.74 68.6428,267.193 55.1398,273.07 C48.3928,276.017 41.3898,279.605 35.3278,283.071 C29.2638,286.534 24.1388,289.878 21.1458,292.2 L23.5618,298.617 C27.2488,308.113 31.1918,316.43 35.3258,323.623 C39.4148,330.85 43.6428,336.997 47.7878,342.28 C56.1218,352.825 64.2158,359.851 71.3228,364.616 C78.4388,369.379 84.5768,371.879 89.2668,373.29 C93.9488,374.7 97.1858,375.023 98.5768,375.361 C99.9778,375.701 101.3968,375.486 102.6748,374.9 C103.9478,374.307 105.0668,373.333 105.9048,372.208 C107.5748,369.951 108.1028,367.034 106.1338,364.769 C104.2818,362.665 93.5058,354.88 85.0058,344.779 C76.4688,334.753 70.2998,322.546 76.8398,314.041 C80.7688,308.915 84.9668,307.911 88.9228,308.697 C92.8618,309.501 96.6618,312.081 99.8098,314.382 C103.5998,317.125 108.2058,315.995 111.2238,313.469 C114.2388,310.936 115.7138,307.037 113.2878,304.002 C111.2018,301.452 108.5768,298.702 105.6128,295.843 C102.7318,292.963 99.4908,289.972 96.4908,286.888 C90.3668,280.757 84.9038,274.279 82.7608,268.55" id="SKIN" fill="#694d3d" blush:color="Skin-500" blush:i="0.2.0.1.0.0.14"/><path d="M317.1416,1.0002 C317.1416,17.5562 309.1416,38.5562 282.6416,38.5562 C251.1416,38.5562 238.1416,20.6372 238.1416,1.0002 L317.1416,1.0002 Z" id="SKIN" fill="#694d3d" blush:color="Skin-500" blush:i="0.2.0.1.0.0.15"/></g></g></g><g id="Head" transform="translate(338.000000, -61.000000) scale(1 1)" blush:width="127" blush:height="211" blush:component="Head" blush:i="0.2.0.2" blush:value="Side Combed"><g id="Head/Side Combed" stroke="none" stroke-width="1" fill="none" fill-rule="evenodd" blush:i="0.2.0.2.0"><g id="Group-19" transform="translate(7.000000, 53.000000)" blush:i="0.2.0.2.0.0"><path d="M50.8009,112.5379 L69.9999,112.5379 L69.9999,7.5379 L50.8009,7.5379 C22.7439,7.5379 -9.99999993e-05,30.2819 -9.99999993e-05,58.3389 L-9.99999993e-05,61.7369 C-9.99999993e-05,89.7939 22.7439,112.5379 50.8009,112.5379" id="Fill-1" fill="#000" blush:i="0.2.0.2.0.0.0"/><path d="M56.1991,82.5379 L47.0001,82.5379 L47.0001,7.5379 L56.1991,7.5379 C84.2561,7.5379 107.0001,20.2819 107.0001,48.3389 L107.0001,61.7369 C107.0001,82.5379 84.2561,82.5379 56.1991,82.5379" id="Fill-4" fill="#000" blush:i="0.2.0.2.0.0.1"/><path d="M28,80.5379 L73,80.5379 L73,132.1709 C73,146.0759 62.926,157.3479 50.5,157.3479 C38.074,157.3479 28,146.0759 28,132.1709 L28,80.5379 Z" id="SKIN" fill="#694d3d" blush:color="Skin-500" blush:i="0.2.0.2.0.0.2"/><path d="M75.0525,112.5379 L70.0655,112.5379 C46.8335,112.5379 28.0005,93.7049 28.0005,70.4729 L28.0005,50.7409 C28.0005,32.9559 42.4175,18.5379 60.2035,18.5379 L65.7965,18.5379 C83.5825,18.5379 98.0005,32.9559 98.0005,50.7409 L98.0005,89.5899 C98.0005,102.2639 87.7265,112.5379 75.0525,112.5379" id="SKIN" fill="#694d3d" blush:color="Skin-500" blush:i="0.2.0.2.0.0.3"/><path d="M49.7507501,115.331676 C40.4557924,112.043569 35.8185822,103.738674 33.9822222,92.5680961 C41.2532122,104.670172 54.4406226,112.813226 69.5439426,112.996733 L70.0655,112.9999 L73,112.9999 C65.0632106,117.229739 57.3134606,118.006998 49.7507501,115.331676 Z" id="SHADOW" fill="#000" opacity=".12" blush:i="0.2.0.2.0.0.4"/><path d="M40,77.0379 C40,83.9409 34.404,89.5379 27.5,89.5379 C20.596,89.5379 15,83.9409 15,77.0379 C15,70.1349 20.596,64.5379 27.5,64.5379 C34.404,64.5379 40,70.1349 40,77.0379" id="SKIN" fill="#694d3d" blush:color="Skin-500" blush:i="0.2.0.2.0.0.5"/><path d="M25.067,71.7064 C25.9718309,71.7064 27.2239875,71.9150928 28.5088204,72.5575092 C30.6553998,73.6307989 32.0130325,75.593228 32.10411,78.4400045 L32.109,78.7484 L29.109,78.7484 C29.109,76.9130144 28.4076866,75.8610443 27.1671796,75.2407908 C26.7065142,75.0104581 26.1976823,74.8578085 25.686339,74.7725846 C25.4347302,74.7306498 25.2385731,74.7126448 25.1250097,74.707808 L25.067,74.7064 L25.067,71.7064 Z" id="SKIN" fill="#000" fill-rule="nonzero" blush:i="0.2.0.2.0.0.6"/><path d="M27,64.5379 L25.464,64.5379 C19.61,58.8459 17.361,47.2459 16.683,35.9869 C15.754,20.5579 42.542,7.5379 57.999,7.5379 L75.984,7.5379 L93,33.5379 L53.697,33.5379 C53.697,50.5379 39,64.5379 27,64.5379" id="Fill-14" fill="#000" blush:i="0.2.0.2.0.0.7"/><path d="M57.2642,33.5379 L92.5692,33.5379 C102.7482,33.5379 111.0002,25.2859 111.0002,15.1069 L111.0002,7.1709 C111.0002,3.2099 107.7892,-0.0011 103.8282,-0.0011 L72.2742,-0.0011 C58.8682,-0.0011 48.0002,10.8679 48.0002,24.2739 C48.0002,29.3909 52.1482,33.5379 57.2642,33.5379" id="Fill-16" fill="#000" blush:i="0.2.0.2.0.0.8"/></g></g></g><g id="Expression" transform="translate(385.000000, 34.000000) scale(1 1)" fill="#000" blush:width="61" blush:height="61" blush:component="Expression" blush:i="0.2.0.3" blush:value="Happy"><g id="Expression/Happy" stroke="none" stroke-width="1" fill="none" fill-rule="evenodd" blush:i="0.2.0.3.0"><path d="M20.5607,22 C20.5607,20.343 19.2177,19 17.5607,19 C15.9037,19 14.5607,20.343 14.5607,22 C14.5607,23.657 15.9037,25 17.5607,25 C19.2177,25 20.5607,23.657 20.5607,22" id="Fill-1" fill="#000" blush:i="0.2.0.3.0.0"/><path d="M46.5607,22 C46.5607,20.343 45.2177,19 43.5607,19 C41.9037,19 40.5607,20.343 40.5607,22 C40.5607,23.657 41.9037,25 43.5607,25 C45.2177,25 46.5607,23.657 46.5607,22" id="Fill-3" fill="#000" blush:i="0.2.0.3.0.1"/><polygon id="Stroke-5" fill="#000" points="33.1977829 19.396766 36.1476171 18.850434 40.4350211 41.9996 30.5607 41.9996 30.5607 38.9996 36.828 38.999" blush:i="0.2.0.3.0.2"/><path d="M21.9219,41.586 C21.9219,45.2602625 25.6639817,48.6581933 29.6815435,48.7900329 L29.9229,48.794 L29.9229,51.794 C24.3252295,51.794 19.0961019,47.2280163 18.9261594,41.8552911 L18.9219,41.586 L21.9219,41.586 Z" id="Stroke-7" fill="#000" blush:i="0.2.0.3.0.3"/><path d="M23.0607,9 L23.0607,12 C19.8342736,12 16.8913939,12.8655529 14.2891644,14.3112359 C13.508469,14.7449556 12.8086718,15.2043948 12.1956619,15.6654963 L11.8964164,15.8960741 C11.548672,16.1706093 11.3051282,16.3844813 11.1717567,16.5115787 L11.1213602,16.5606602 L9.00003983,14.4393398 C9.71719288,13.7221868 11.0118484,12.7000903 12.8322356,11.6887641 C15.7235813,10.0824609 18.9894549,9.08904431 22.5704367,9.00569674 L23.0607,9 Z" id="Stroke-9" fill="#000" blush:i="0.2.0.3.0.4"/><path d="M37.0607,9 C40.8342736,9 44.2663939,10.0094471 47.2891644,11.6887641 C48.9957774,12.6368824 50.2403215,13.5944668 50.980139,14.3013772 L51.1213602,14.4393398 L49.0000398,16.5606602 L48.8084832,16.3819961 C48.6965748,16.2822525 48.549249,16.1566104 48.3676199,16.0099419 L48.2249836,15.8960741 C47.5437467,15.3582556 46.7430469,14.8172422 45.8322356,14.3112359 C43.3601176,12.937837 40.5805627,12.0880056 37.5425302,12.006456 L37.0607,12 L37.0607,9 Z" id="Stroke-11" fill="#000" blush:i="0.2.0.3.0.5"/></g></g><g id="Accessories" transform="translate(372.000000, 56.000000) scale(1 1)" fill="#000" blush:width="76" blush:height="48" blush:component="Accessories" blush:i="0.2.0.4" blush:value="None"><g id="Accessories/None" stroke="none" stroke-width="1" fill="none" fill-rule="evenodd" fill-opacity="0" blush:i="0.2.0.4.0"/></g><g id="Glasses" transform="translate(364.000000, 42.000000) scale(1 1)" fill="#000" blush:width="95" blush:height="32" blush:component="Glasses" blush:i="0.2.0.5" blush:value="None"><g id="Glasses/None" stroke="none" stroke-width="1" fill="none" fill-rule="evenodd" fill-opacity="0" blush:i="0.2.0.5.0"/></g></g></g><g transform="translate(345.000000, 237.000000) scale(1 1)" blush:has-customizable-colors="true" blush:width="904" blush:height="859" id="Master/Character/Standing" blush:component="Master/Character/Standing" blush:i="0.3" blush:value="Standing"><g id="Master/Character/Standing" stroke="none" stroke-width="1" fill="none" fill-rule="evenodd" blush:has-customizable-colors="true" blush:i="0.3.0"><g id="Legs" transform="translate(50.000000, 263.000000) scale(1 1)" blush:width="693" blush:height="596" blush:component="Legs" blush:i="0.3.0.0" blush:value="Shorts Leap"><g id="Legs/Shorts Leap" stroke="none" stroke-width="1" fill="none" fill-rule="evenodd" blush:i="0.3.0.0.0"><g id="Group-2" transform="translate(176.000411, 0.000000)" blush:i="0.3.0.0.0.0"><path d="M7.99958868,221 C8.05058421,216.184496 7.20815088,209.084896 5.47228868,199.7012 C5.51428868,196.1242 8.49828868,193.2582 12.0422887,193.2982 C41.4062887,193.6412 70.5712887,193.5582 99.8102887,192.7462 C144.999289,191.2722 189.507289,189.1652 233.234289,180.9812 C238.190289,179.9652 243.329289,178.8632 247.734289,176.2782 C263.594289,170.8602 225.776289,104.4832 220.269289,92.3662 L290.069289,55.3662 C312.353289,99.8592 368.586289,202.9532 309.102289,237.0702 C256.129289,268.3462 163.263289,268.6122 102.002289,271.7182 C71.6462887,272.5592 41.3132887,272.6472 11.1682887,272.2932 C7.57328868,272.2532 4.73428868,269.3202 4.77289164,265.7452 C6.81959698,245.776007 7.89516265,230.86094 7.99958868,221 Z" id="SKIN-DARKER" fill="#964c1c" blush:color="Skin-600" blush:i="0.3.0.0.0.0.0"/><path d="M180.830789,47.8077 C177.908789,49.4597 175.987789,51.5017 176.497789,52.3177 C176.498789,52.3177 180.732789,59.3977 180.732789,59.3977 C199.705789,92.0587 217.925789,126.1107 230.413789,161.4877 C230.387789,161.4457 230.341789,161.4997 230.292789,161.4997 L278.699789,152.1417 C281.191789,147.8687 283.456789,143.1907 284.910789,136.6497 C289.934789,140.4127 294.924789,143.7927 299.682789,148.0837 L348.661789,138.6137 C341.883138,116.626728 332.876721,95.4249303 322.722152,74.7993965 C314.203874,57.4974274 280.09525,8.09948078 275.065789,4.26325641e-14" id="Fill-3" fill="#CC2935" blush:i="0.3.0.0.0.0.1"/><path d="M31.5242887,279.6641 C71.1752887,279.8321 110.924289,279.1861 151.020289,276.8351 L145.563289,184.7931 C97.6702887,187.6541 48.2112887,187.7871 1.56319402e-13,187.1851 L1.56319402e-13,218.3541 C2.64228868,218.8181 4.91628868,219.3061 7.27428868,219.7881 L1.56319402e-13,236.8981 C1.56319402e-13,256.3211 1.56319402e-13,295.9041 1.56319402e-13,315.1851 L10.8302887,315.292322 C19.0882887,315.3801 22.2262887,289.2841 31.5242887,279.6641" id="Fill-5" fill="#0A1B45" blush:i="0.3.0.0.0.0.2"/></g><g id="Left-Leg" transform="translate(234.000000, 0.000000)" blush:i="0.3.0.0.0.1"><path d="M31.6410854,524.216016 C27.989231,521.032975 21.9538301,517.064853 13.5348827,512.311652 C10.7914733,509.915117 10.1715107,505.954394 12.1841429,503.336945 C29.2056606,481.111668 45.2747719,456.863627 59.3242627,432.349654 C90.0208976,376.68281 120.668614,310.799542 108.237416,245.745482 C97.8038743,188.421271 65.3871177,139.541994 39.7959397,87.9290546 L110.365854,51 C124.91451,80.9017294 142.821546,109.953312 156.592502,140.825591 C173.462274,178.388068 186.938724,219.652664 189.764994,261.514038 C193.591591,355.076298 150.108352,440.975716 101.568575,515.998066 C92.6684674,529.375321 83.4309247,542.423824 73.5694261,555.268167 C71.2003902,558.34838 66.9864415,558.910608 64.2440304,556.510931 C50.1255789,541.620008 39.2579305,530.855037 31.6410854,524.216016 Z" id="SKIN" fill="#ae5d29" blush:color="Skin-500" blush:i="0.3.0.0.0.1.0"/><path d="M110.041805,1.95083714 L6.03444378,0.00260635822 C2.68748442,-0.0757827559 -0.024431346,1.62369324 -2.91038305e-11,3.79872986 C-0.0214358574,12.3410529 0.638570151,20.8645626 1.88968593,29.2762371 C9.54715352,83.1462815 42.4206449,129.743906 64.2088312,177 L107.807171,154.083204 C108.801673,147.53719 109.629426,140.943098 110.349342,134.334373 C115.856049,137.511745 121.311832,140.76228 126.70471,144.149735 L171,120.866078 C156.977119,91.8892807 140.1245,65.5390413 126.516993,37.3983945 C122.561949,29.0086689 118.94939,20.1736932 117.073216,11.1505836 C116.593937,8.45713361 116.189546,5.75636733 116.142617,3.03469729 C116.12764,2.51419357 113.387766,2.02818107 110.041805,1.95083714" id="Fill-11" fill="#FA3239" blush:i="0.3.0.0.0.1.1"/><path d="M92.8073432,542.400779 C117.625071,507.762243 139.625942,471.422674 158,432.430665 L75.2122455,390 C55.6872468,431.250293 30.3685452,471.378763 2,507.002162 C2.73996205,507.677557 24.1148659,527.181402 25.4827958,528.430778 C26.8887237,527.457415 29.1766063,525.462597 30.5545357,524.343909 C33.5853802,529.910163 36.5262294,535.566331 39.4530793,541.179633 C54.085329,554.531742 83.9047998,581.745122 98.4310548,595 C99.6729911,593.481931 102.174863,590.408154 103.376801,588.877539 C118.106046,576.134956 96.068176,561.94749 92.8073432,542.400779" id="Fill-13" fill="#0A1B45" blush:i="0.3.0.0.0.1.2"/></g><path d="M243,0 C243,55.228475 289.562386,100 347,100 C404.437614,100 451,55.228475 451,0" id="Waist" fill="#FA3239" blush:i="0.3.0.0.0.2"/></g></g><g id="Body" transform="translate(17.000000, -31.000000) scale(1 1)" blush:width="863" blush:height="528" blush:component="Body" blush:i="0.3.0.1" blush:value="Tee Wave 2"><g id="Body/Tee Wave 2" stroke="none" stroke-width="1" fill="none" fill-rule="evenodd" blush:i="0.3.0.1.0"><g id="Right-Arm" transform="translate(416.000000, -24.000000)" blush:i="0.3.0.1.0.0"><path d="M213.522934,16.4060281 L213.461438,16.1692935 L213.461438,16.1692935 L212.94682,14.2239949 L212.94682,14.2239949 C211.730347,9.72235856 214.389985,4.96719889 219.006354,3.45088051 L219.26482,3.36999492 C223.172511,2.20640433 227.253314,3.87008637 229.309631,7.19884988 L229.391502,6.84006737 C230.068251,4.08404287 231.689515,1.98701907 234.767183,0.973599924 L235.17692,0.847594922 C236.08874,0.626194922 236.942427,0.527151722 237.74242,0.53869937 L238.137963,0.553634626 C243.306695,0.871366088 246.163309,5.93217991 247.988526,12.3414319 C249.088523,10.2396863 250.956377,8.57112955 253.373965,7.85600018 L253.63492,7.78309492 C254.36092,7.52949492 255.059,7.40088532 255.73034,7.38849678 L256.22885,7.4008598 C266.511163,8.10672763 270.336776,36.6536613 272.208377,59.585622 C272.319959,60.2921049 272.409778,61.0085911 272.47782,61.7325949 C273.30248,69.8766959 273.882752,77.9767906 274.172462,86.0652479 C274.173074,86.077379 274.174497,86.0882578 274.17592,86.0990949 L274.18066,86.296334 C274.933417,107.721697 273.644226,129.067564 269.45482,150.935595 C262.66582,185.932595 247.91082,220.591595 220.78382,245.456595 C197.50398,267.625065 164.737298,278.544487 132.843983,278.857549 L131.691611,278.864247 C125.547849,278.875347 119.44118,278.492595 113.44582,277.720595 C89.2208199,275.005595 66.5418199,267.704595 44.8448199,258.179595 C27.5658199,251.189595 18.6488199,229.412595 28.4798199,213.051595 C37.5002599,199.848075 46.6538967,195.460905 56.3048919,195.407534 L56.9636893,195.410558 C69.0559274,195.587187 81.9382199,202.376195 96.3218199,207.022595 C108.05458,210.522455 120.198618,212.781787 132.093359,212.762747 L133.007836,212.756771 C136.05438,212.721755 139.08342,212.535195 142.08382,212.179595 C161.83282,210.134595 178.60482,198.381595 188.89382,181.252595 C205.40282,153.686595 209.07982,120.617595 208.21182,88.3495949 C208.064359,86.8408599 207.920885,85.3468374 207.787452,83.8692386 L207.756108,83.8706358 L207.756108,83.8706358 L207.48321,83.8724115 C202.76765,83.8416469 198.833768,80.6250653 198.52562,76.4746949 C199.67262,66.2636949 188.59162,44.4826949 202.81362,41.5506949 C201.784841,36.1657238 200.612447,30.798422 199.30242,25.4585949 C198.244383,21.137132 201.031863,16.6104848 205.682216,15.1962969 L205.94742,15.1195949 C208.667656,14.3719144 211.433614,14.9261657 213.522934,16.4060281 Z" id="SKIN-DARKER" fill="#964c1c" blush:color="Skin-600" blush:i="0.3.0.1.0.0.0"/><path d="M213.522934,16.4060281 L213.461438,16.1692935 L213.461438,16.1692935 L212.94682,14.2239949 L212.94682,14.2239949 C211.730347,9.72235856 214.389985,4.96719889 219.006354,3.45088051 L219.26482,3.36999492 C223.172511,2.20640433 227.253314,3.87008637 229.309631,7.19884988 L229.391502,6.84006737 C230.068251,4.08404287 231.689515,1.98701907 234.767183,0.973599924 L235.17692,0.847594922 C236.08874,0.626194922 236.942427,0.527151722 237.74242,0.53869937 L238.137963,0.553634626 C243.306695,0.871366088 246.163309,5.93217991 247.988526,12.3414319 C249.088523,10.2396863 250.956377,8.57112955 253.373965,7.85600018 L253.63492,7.78309492 C254.36092,7.52949492 255.059,7.40088532 255.73034,7.38849678 L256.22885,7.4008598 C266.511163,8.10672763 270.336776,36.6536613 272.208377,59.585622 C272.319959,60.2921049 272.409778,61.0085911 272.47782,61.7325949 C273.30248,69.8766959 273.882752,77.9767906 274.172462,86.0652479 C274.173074,86.077379 274.174497,86.0882578 274.17592,86.0990949 L274.18066,86.296334 C274.933417,107.721697 273.644226,129.067564 269.45482,150.935595 C262.66582,185.932595 247.91082,220.591595 220.78382,245.456595 C197.50398,267.625065 164.737298,278.544487 132.843983,278.857549 L131.691611,278.864247 C125.547849,278.875347 119.44118,278.492595 113.44582,277.720595 C89.2208199,275.005595 66.5418199,267.704595 44.8448199,258.179595 C27.5658199,251.189595 18.6488199,229.412595 28.4798199,213.051595 C37.5002599,199.848075 46.6538967,195.460905 56.3048919,195.407534 L56.9636893,195.410558 C69.0559274,195.587187 81.9382199,202.376195 96.3218199,207.022595 C108.05458,210.522455 120.198618,212.781787 132.093359,212.762747 L133.007836,212.756771 C136.05438,212.721755 139.08342,212.535195 142.08382,212.179595 C161.83282,210.134595 178.60482,198.381595 188.89382,181.252595 C205.40282,153.686595 209.07982,120.617595 208.21182,88.3495949 C208.064359,86.8408599 207.920885,85.3468374 207.787452,83.8692386 L207.756108,83.8706358 L207.756108,83.8706358 L207.48321,83.8724115 C202.76765,83.8416469 198.833768,80.6250653 198.52562,76.4746949 C199.67262,66.2636949 188.59162,44.4826949 202.81362,41.5506949 C201.784841,36.1657238 200.612447,30.798422 199.30242,25.4585949 C198.244383,21.137132 201.031863,16.6104848 205.682216,15.1962969 L205.94742,15.1195949 C208.667656,14.3719144 211.433614,14.9261657 213.522934,16.4060281 Z" id="SKIN-DARKER" fill="#964c1c" blush:color="Skin-600" blush:i="0.3.0.1.0.0.1"/><path d="M106.61002,281.865195 C77.3380199,277.559195 50.6640199,267.217195 25.1170199,254.348195 C3.44501988,243.419195 -7.14916385,216.193998 7.75383615,197.986998 C17.1398361,183.045998 33.1750699,173 33.1750699,173 C62.9719174,174.018837 97.8170199,203.793195 117.54802,206.657195 L106.61002,281.865195 Z" id="Fill-14" fill="#3F8FD4" blush:i="0.3.0.1.0.0.2"/></g><path d="M312,149 L448,149 C470.09139,149 488,166.90861 488,189 L488,300 L488,300 L272,300 L272,189 C272,166.90861 289.90861,149 312,149 Z" id="body" fill="#55B0EB" blush:i="0.3.0.1.0.1"/><path d="M334,149 C334,167.225397 354.594902,182 380,182 C405.405098,182 426,167.225397 426,149" id="SKIN" fill="#ae5d29" blush:color="Skin-500" blush:i="0.3.0.1.0.2"/><g id="Left-Arm" transform="translate(118.000000, 149.000000)" blush:i="0.3.0.1.0.3"><path d="M158.942904,262.260299 C148.085904,263.562299 136.577904,260.418299 126.395904,258.880299 C120.237904,257.372299 118.810904,252.419299 112.661904,248.829299 C106.443904,244.468299 98.2389036,240.029299 89.0629036,235.392299 C60.2099036,221.211299 26.2259036,204.126299 10.4669036,172.945299 C-4.93509644,142.880299 -3.04409644,105.676299 14.1949036,76.9432986 C46.7539036,24.9892986 114.321904,11.5792986 170.098904,6.2132986 C200.563904,2.8682986 217.352904,39.6572986 197.087904,61.0302986 C191.583904,67.1852986 184.135904,71.2552986 175.723904,71.9732986 C138.782904,76.5692986 94.1969036,80.4772986 70.6889036,111.064299 C46.1899036,159.389299 121.895904,170.960299 150.602904,194.826299 C161.634904,202.774299 176.153904,214.435299 179.388904,229.047299 C183.760904,244.498299 175.162904,260.767299 158.942904,262.260299" id="SKIN" fill="#ae5d29" blush:color="Skin-500" blush:i="0.3.0.1.0.3.0"/><path d="M134.963404,277.428299 C118.210404,274.176299 135.959404,262.463299 110.503404,247.363299 C99.6864036,238.761299 112.636404,224.219299 123.010404,234.101299 C130.224404,239.200299 136.074404,244.748299 139.535404,250.824299 C143.928404,258.498299 150.266404,279.032299 134.963404,277.428299" id="SKIN" fill="#ae5d29" blush:color="Skin-500" blush:i="0.3.0.1.0.3.1"/><path d="M148.916604,289.313099 C135.811604,285.949099 145.642604,268.182099 141.038604,259.392099 C140.230604,255.607099 143.571604,251.994099 147.104604,250.147099 C164.061604,244.111099 160.496604,273.033099 159.446604,282.752099 C158.739604,287.631099 153.651604,290.595099 148.916604,289.313099" id="SKIN" fill="#ae5d29" blush:color="Skin-500" blush:i="0.3.0.1.0.3.2"/><path d="M163.944904,295.210499 L163.944904,295.210499 C159.227904,293.936499 156.276904,289.052499 157.154904,284.351499 C158.782904,275.148499 159.124904,265.696499 156.917904,256.814499 C154.930904,249.880499 162.453904,241.404499 169.517904,245.638499 C179.236904,250.237499 180.852904,300.907499 163.944904,295.210499" id="SKIN" fill="#ae5d29" blush:color="Skin-500" blush:i="0.3.0.1.0.3.3"/><path d="M190.919504,253.299399 C177.266504,252.730399 177.363504,232.618399 169.003504,224.716399 C163.994504,214.971399 146.481504,208.443399 152.678504,196.324399 C166.112504,178.868399 212.774504,246.542399 190.919504,253.299399" id="SKIN" fill="#ae5d29" blush:color="Skin-500" blush:i="0.3.0.1.0.3.4"/><path d="M181.526904,289.973199 C176.275904,288.840199 173.672904,283.356199 174.121904,278.098199 C175.018904,268.511199 174.328904,258.144199 171.075904,248.209199 C169.463904,243.258199 167.220904,238.474199 164.489904,234.087199 C160.500904,225.602199 146.374904,218.356199 153.166904,208.090199 C167.692904,196.083199 184.305904,231.485199 188.180904,242.603199 C191.294904,253.852199 199.786904,290.282199 181.526904,289.973199" id="SKIN" fill="#ae5d29" blush:color="Skin-500" blush:i="0.3.0.1.0.3.5"/><path d="M107.885904,11.3333986 C134.716904,4.4823986 159.100336,0 193.989782,0 C218.220348,0 228.079904,19.2873986 223.914904,42.0653986 C223.068904,59.8133986 209.797904,74.9633986 192.097904,75.9073986 C169.604904,76.9783986 147.193904,79.7023986 126.859904,84.9263986 L107.885904,11.3333986 Z" id="Fill-29" fill="#55B0EB" blush:i="0.3.0.1.0.3.6"/></g></g></g><g id="Head" transform="translate(338.000000, -61.000000) scale(1 1)" blush:width="127" blush:height="211" blush:component="Head" blush:i="0.3.0.2" blush:value="Layered"><g id="Head/Layered" stroke="none" stroke-width="1" fill="none" fill-rule="evenodd" blush:i="0.3.0.2.0"><path d="M130,125.5 L130,108.367 C130,104.576 127.538,101.504 124.5,101.504 C121.462,101.504 119,98.431 119,94.641 L119,86.457 C119,72.397 101.84,61 90.715,61 L79,61 L79,173 L121.072,173 C133.182,173 143,160.162 143,144.324 L143,138.5 C143,134.91 140.775,132 138.029,132 L134.971,132 C132.225,132 130,129.09 130,125.5" id="Fill-1" fill="#000" blush:i="0.3.0.2.0.0"/><path d="M57.801,173 L77,173 L77,61 L57.801,61 C29.744,61 7,83.744 7,111.801 L7,122.199 C7,150.256 29.744,173 57.801,173" id="Fill-4" fill="#000" blush:i="0.3.0.2.0.1"/><g id="head" transform="translate(22.000000, 72.000000)" blush:i="0.3.0.2.0.2"><g fill="#ae5d29" id="SKIN" blush:color="Skin-500" blush:i="0.3.0.2.0.2.0"><path d="M13,62 L58,62 L58,113.633 C58,127.538 47.926,138.81 35.5,138.81 C23.074,138.81 13,127.538 13,113.633 L13,62 Z" blush:i="0.3.0.2.0.2.0.0"/><path d="M60.0525,94 L55.0655,94 C31.8335,94 13.0005,75.167 13.0005,51.935 L13.0005,32.203 C13.0005,14.418 27.4175,0 45.2035,0 L50.7965,0 C68.5825,0 83.0005,14.418 83.0005,32.203 L83.0005,71.052 C83.0005,83.726 72.7265,94 60.0525,94" blush:i="0.3.0.2.0.2.0.1"/><path d="M25,58.5 C25,65.403 19.404,71 12.5,71 C5.596,71 0,65.403 0,58.5 C0,51.597 5.596,46 12.5,46 C19.404,46 25,51.597 25,58.5" blush:i="0.3.0.2.0.2.0.2"/></g><path d="M10.067,53.1685 C10.9718309,53.1685 12.2239875,53.3771928 13.5088204,54.0196092 C15.6553998,55.0928989 17.0130325,57.055328 17.10411,59.9021045 L17.109,60.2105 L14.109,60.2105 C14.109,58.3751144 13.4076866,57.3231443 12.1671796,56.7028908 C11.7065142,56.4725581 11.1976823,56.3199085 10.686339,56.2346846 C10.4347302,56.1927498 10.2385731,56.1747448 10.1250097,56.169908 L10.067,56.1685 L10.067,53.1685 Z" id="ear-line" fill="#000" blush:i="0.3.0.2.0.2.1"/><path d="M34.7507501,96.3317762 C25.4557924,93.0436693 20.8185822,84.7387742 18.9822222,73.5681961 C26.2532122,85.6702724 39.4406226,93.8133264 54.5439426,93.9968331 L55.0655,94 L58,94 C50.0632106,98.2298391 42.3134606,99.0070978 34.7507501,96.3317762 Z" id="SHADOW" fill="#000" opacity=".12" blush:i="0.3.0.2.0.2.2"/></g><path d="M34.3390489,118 L32.8032704,118 C26.9501148,112.308 24.7014391,100.708 24.0235369,89.449 C23.0946709,74.02 49.8788072,61 65.3335778,61 L83.3159838,61 L104,87 L66.0314771,87 C59.2564544,105.085 46.3373181,118 34.3390489,118" id="Fill-15" fill="#000" blush:i="0.3.0.2.0.3"/></g></g><g id="Expression" transform="translate(385.000000, 34.000000) scale(1 1)" fill="#000" blush:width="61" blush:height="61" blush:component="Expression" blush:i="0.3.0.3" blush:value="Happy"><g id="Expression/Happy" stroke="none" stroke-width="1" fill="none" fill-rule="evenodd" blush:i="0.3.0.3.0"><path d="M20.5607,22 C20.5607,20.343 19.2177,19 17.5607,19 C15.9037,19 14.5607,20.343 14.5607,22 C14.5607,23.657 15.9037,25 17.5607,25 C19.2177,25 20.5607,23.657 20.5607,22" id="Fill-1" fill="#000" blush:i="0.3.0.3.0.0"/><path d="M46.5607,22 C46.5607,20.343 45.2177,19 43.5607,19 C41.9037,19 40.5607,20.343 40.5607,22 C40.5607,23.657 41.9037,25 43.5607,25 C45.2177,25 46.5607,23.657 46.5607,22" id="Fill-3" fill="#000" blush:i="0.3.0.3.0.1"/><polygon id="Stroke-5" fill="#000" points="33.1977829 19.396766 36.1476171 18.850434 40.4350211 41.9996 30.5607 41.9996 30.5607 38.9996 36.828 38.999" blush:i="0.3.0.3.0.2"/><path d="M21.9219,41.586 C21.9219,45.2602625 25.6639817,48.6581933 29.6815435,48.7900329 L29.9229,48.794 L29.9229,51.794 C24.3252295,51.794 19.0961019,47.2280163 18.9261594,41.8552911 L18.9219,41.586 L21.9219,41.586 Z" id="Stroke-7" fill="#000" blush:i="0.3.0.3.0.3"/><path d="M23.0607,9 L23.0607,12 C19.8342736,12 16.8913939,12.8655529 14.2891644,14.3112359 C13.508469,14.7449556 12.8086718,15.2043948 12.1956619,15.6654963 L11.8964164,15.8960741 C11.548672,16.1706093 11.3051282,16.3844813 11.1717567,16.5115787 L11.1213602,16.5606602 L9.00003983,14.4393398 C9.71719288,13.7221868 11.0118484,12.7000903 12.8322356,11.6887641 C15.7235813,10.0824609 18.9894549,9.08904431 22.5704367,9.00569674 L23.0607,9 Z" id="Stroke-9" fill="#000" blush:i="0.3.0.3.0.4"/><path d="M37.0607,9 C40.8342736,9 44.2663939,10.0094471 47.2891644,11.6887641 C48.9957774,12.6368824 50.2403215,13.5944668 50.980139,14.3013772 L51.1213602,14.4393398 L49.0000398,16.5606602 L48.8084832,16.3819961 C48.6965748,16.2822525 48.549249,16.1566104 48.3676199,16.0099419 L48.2249836,15.8960741 C47.5437467,15.3582556 46.7430469,14.8172422 45.8322356,14.3112359 C43.3601176,12.937837 40.5805627,12.0880056 37.5425302,12.006456 L37.0607,12 L37.0607,9 Z" id="Stroke-11" fill="#000" blush:i="0.3.0.3.0.5"/></g></g><g id="Accessories" transform="translate(372.000000, 56.000000) scale(1 1)" fill="#000" blush:width="76" blush:height="48" blush:component="Accessories" blush:i="0.3.0.4" blush:value="None"><g id="Accessories/None" stroke="none" stroke-width="1" fill="none" fill-rule="evenodd" fill-opacity="0" blush:i="0.3.0.4.0"/></g><g id="Glasses" transform="translate(364.000000, 42.000000) scale(1 1)" fill="#000" blush:width="95" blush:height="32" blush:component="Glasses" blush:i="0.3.0.5" blush:value="Thick"><g id="Glasses/Thick" stroke="none" stroke-width="1" fill="none" fill-rule="evenodd" blush:i="0.3.0.5.0"><path d="M43.5452664,3.00012344 C49.2894512,3.02462661 55.021427,4.35163303 57.0857956,6.97405047 C58.0938547,8.25461237 58.6772219,10.0147386 58.9068842,11.9996703 L62.1143968,11.9996703 C62.3440591,10.0147386 62.9274264,8.25461237 63.9354854,6.97405047 C65.9529365,4.41123343 71.4731799,3.0856142 77.0844275,3.00401411 L77.4760146,3.00012344 L77.8967218,3.00012344 L80.8146938,3.0378718 C91.0822714,3.2070925 94.9796428,3.73089949 95.893837,5.69362755 C96.9046181,7.86372269 97.4724619,10.8486323 96.5699433,12.3975628 L96.4345265,12.6077971 C96.2607766,12.8804731 95.8187885,13.7026763 95.3317143,14.6775352 L95.2267324,14.8886255 L94.7966033,15.7746065 C94.1772527,17.0747485 93.6217104,18.3482986 93.2115536,19.4320065 L93.1438986,19.6872046 L93.1438986,19.6872046 C92.2530855,22.9637972 90.4857872,26.1972123 88.6985341,28.3365739 C85.3492115,32.34575 71.1131799,32.6082999 67.0329763,28.4576053 C64.4038322,25.7830393 62.5077693,20.7417692 62.087653,15.9998009 L58.933628,15.9998009 C58.5135117,20.7417692 56.6174488,25.7830393 53.9883048,28.4576053 C49.9081011,32.6082999 35.6720695,32.34575 32.3227469,28.3365739 C30.5354938,26.1972123 28.7681955,22.9637972 27.8773824,19.6872046 L27.8097274,19.4320065 C27.4233065,18.4110132 26.9078403,17.2215143 26.331547,16.0000268 L0,16 L0,12 L24.2628445,12.0004643 C23.6422666,10.3774347 24.1973223,7.69055104 25.127444,5.69362755 C26.0970439,3.61194627 30.4223758,3.14888604 42.1443686,3.0107703 L43.1245592,3.00012344 L43.5452664,3.00012344 Z M32.8542992,9.57832836 C31.1333273,11.9393787 30.7976239,14.9040914 31.4059083,17.8533932 L31.6334165,18.4663592 L31.5539327,18.4983688 C32.1949786,21.035914 33.5135424,23.5284501 35.226974,25.5794466 C37.0849603,27.8034767 48.7860935,28.0192764 51.3034638,25.4584151 C54.5060095,22.2005411 56.3804317,12.9591713 54.2303847,9.80770023 L54.1067801,9.63896051 L53.9809214,9.49277664 C51.015179,6.32545056 35.1904568,6.373287 32.8542992,9.57832836 Z M88.1669819,9.57832836 C85.8662205,6.42184823 70.4825425,6.32762495 67.1839305,9.35102137 L67.0403596,9.49277664 L66.9145009,9.63896051 L66.7908963,9.80770023 C64.6408493,12.9591713 66.5152715,22.2005411 69.7178172,25.4584151 C72.2351876,28.0192764 83.9363207,27.8034767 85.794307,25.5794466 C87.4069485,23.6490969 88.669811,21.3276257 89.347247,18.9456229 L89.4673483,18.4983688 L89.3878645,18.4663592 L89.6153727,17.8533932 L89.6153727,17.8533932 C90.2236571,14.9040914 89.8879537,11.9393787 88.1669819,9.57832836 Z" id="Shape" fill="#000" blush:i="0.3.0.5.0.0"/></g></g></g></g></g></svg>