<svg width="53" height="53" viewBox="0 0 53 53" fill="none" xmlns="https://www.w3.org/2000/svg">
<g clip-path="url(#clip0)">
<g clip-path="url(#clip1)">
<path d="M38.6477 4.65234H38.5579C31.9554 4.65234 28.2641 9.48416 26.5534 12.7553C24.8127 9.48406 21.1514 4.65234 14.549 4.65234H14.4291C7.28627 4.71244 1.33331 10.8046 0.97322 18.5175C0.522938 27.9709 8.06664 34.3333 19.3507 43.9369C21.3015 45.6175 23.3723 47.3883 25.5631 49.279L26.5535 50.1493L27.544 49.279C29.7047 47.3883 31.8055 45.6175 33.7563 43.9369C45.0403 34.3333 52.5834 27.9709 52.1331 18.5175C51.7727 10.8045 45.7905 4.71234 38.6477 4.65234Z" fill="#00C39D"/>
<path d="M52.1323 18.5175C52.5826 27.9709 45.0396 34.3333 33.7556 43.9369C31.8047 45.6175 29.7039 47.3883 27.5432 49.279L26.5527 50.1493V12.7553C28.2634 9.48406 31.9547 4.65234 38.5572 4.65234H38.6471C45.7899 4.71234 51.7721 10.8045 52.1323 18.5175Z" fill="#00A484"/>
<path d="M25.6845 15.7939H22.2503L14.6279 36.3579H17.6434L25.6845 15.7939Z" fill="white"/>
<path d="M29.3701 22.8158V19.4721L38.5839 25.3236V28.1658L29.3701 34.0173V30.0048L35.2334 26.5775L29.3701 22.8158Z" fill="white"/>
</g>
</g>
<defs>
<clipPath id="clip0">
<rect width="53" height="53" fill="white"/>
</clipPath>
<clipPath id="clip1">
<rect width="51.198" height="51.198" fill="white" transform="translate(0.954102 1.80225)"/>
</clipPath>
</defs>
</svg>
