<svg width="181" height="44" viewBox="0 0 181 44" fill="none" xmlns="http://www.w3.org/2000/svg">
<path d="M46.4375 15.2266V26.5H47.8438V22.4766H50.6797C52.7969 22.4766 54.3047 20.9844 54.3047 18.875C54.3047 16.7266 52.8281 15.2266 50.6953 15.2266H46.4375ZM47.8438 16.4766H50.3281C51.9609 16.4766 52.8594 17.3281 52.8594 18.875C52.8594 20.3672 51.9297 21.2266 50.3281 21.2266H47.8438V16.4766ZM59.3441 26.6484C61.7425 26.6484 63.2269 24.9922 63.2269 22.2891C63.2269 19.5781 61.7425 17.9297 59.3441 17.9297C56.9456 17.9297 55.4613 19.5781 55.4613 22.2891C55.4613 24.9922 56.9456 26.6484 59.3441 26.6484ZM59.3441 25.4375C57.7503 25.4375 56.8519 24.2812 56.8519 22.2891C56.8519 20.2891 57.7503 19.1406 59.3441 19.1406C60.9378 19.1406 61.8363 20.2891 61.8363 22.2891C61.8363 24.2812 60.9378 25.4375 59.3441 25.4375ZM75.2975 18.0781H73.9459L72.2897 24.8125H72.1647L70.2819 18.0781H68.9928L67.11 24.8125H66.985L65.3288 18.0781H63.9694L66.3288 26.5H67.6881L69.5631 19.9844H69.6881L71.5709 26.5H72.9381L75.2975 18.0781ZM79.8213 19.1172C81.1572 19.1172 82.0478 20.1016 82.0791 21.5938H77.4384C77.54 20.1016 78.4775 19.1172 79.8213 19.1172ZM82.04 24.3203C81.6884 25.0625 80.9541 25.4609 79.8681 25.4609C78.4384 25.4609 77.5088 24.4062 77.4384 22.7422V22.6797H83.4931V22.1641C83.4931 19.5469 82.1103 17.9297 79.8369 17.9297C77.5244 17.9297 76.04 19.6484 76.04 22.2969C76.04 24.9609 77.5009 26.6484 79.8369 26.6484C81.6806 26.6484 82.9931 25.7578 83.3838 24.3203H82.04ZM85.2825 26.5H86.626V21.2812C86.626 20.0938 87.556 19.2344 88.837 19.2344C89.103 19.2344 89.587 19.2812 89.697 19.3125V17.9688C89.525 17.9453 89.243 17.9297 89.025 17.9297C87.908 17.9297 86.939 18.5078 86.689 19.3281H86.564V18.0781H85.2825V26.5ZM94.181 19.1172C95.517 19.1172 96.408 20.1016 96.439 21.5938H91.798C91.9 20.1016 92.838 19.1172 94.181 19.1172ZM96.4 24.3203C96.048 25.0625 95.314 25.4609 94.228 25.4609C92.798 25.4609 91.869 24.4062 91.798 22.7422V22.6797H97.853V22.1641C97.853 19.5469 96.47 17.9297 94.197 17.9297C91.884 17.9297 90.4 19.6484 90.4 22.2969C90.4 24.9609 91.861 26.6484 94.197 26.6484C96.041 26.6484 97.353 25.7578 97.744 24.3203H96.4ZM102.76 26.6484C103.924 26.6484 104.924 26.0938 105.455 25.1562H105.58V26.5H106.861V14.7344H105.518V19.4062H105.4C104.924 18.4844 103.932 17.9297 102.76 17.9297C100.619 17.9297 99.221 19.6484 99.221 22.2891C99.221 24.9375 100.603 26.6484 102.76 26.6484ZM103.072 19.1406C104.596 19.1406 105.549 20.3594 105.549 22.2891C105.549 24.2344 104.603 25.4375 103.072 25.4375C101.533 25.4375 100.611 24.2578 100.611 22.2891C100.611 20.3281 101.541 19.1406 103.072 19.1406ZM117.534 26.6484C119.667 26.6484 121.065 24.9219 121.065 22.2891C121.065 19.6406 119.674 17.9297 117.534 17.9297C116.378 17.9297 115.354 18.5 114.893 19.4062H114.768V14.7344H113.424V26.5H114.706V25.1562H114.831C115.362 26.0938 116.362 26.6484 117.534 26.6484ZM117.221 19.1406C118.76 19.1406 119.674 20.3203 119.674 22.2891C119.674 24.2578 118.76 25.4375 117.221 25.4375C115.69 25.4375 114.737 24.2344 114.737 22.2891C114.737 20.3438 115.69 19.1406 117.221 19.1406ZM123.261 29.5469C124.753 29.5469 125.425 28.9688 126.143 27.0156L129.433 18.0781H128.003L125.698 25.0078H125.573L123.261 18.0781H121.808L124.925 26.5078L124.768 27.0078C124.417 28.0234 123.995 28.3906 123.222 28.3906C123.034 28.3906 122.823 28.3828 122.659 28.3516V29.5C122.847 29.5312 123.081 29.5469 123.261 29.5469ZM140.652 26.5L144.55 15.2266H142.402L139.589 24.1484H139.457L136.621 15.2266H134.394L138.332 26.5H140.652ZM148.668 19.3203C149.832 19.3203 150.598 20.1328 150.637 21.3984H146.613C146.699 20.1484 147.512 19.3203 148.668 19.3203ZM150.652 24.1484C150.371 24.7812 149.707 25.1328 148.746 25.1328C147.473 25.1328 146.652 24.2422 146.605 22.8203V22.7188H152.574V22.0938C152.574 19.3984 151.113 17.7812 148.676 17.7812C146.199 17.7812 144.66 19.5078 144.66 22.2578C144.66 25.0078 146.176 26.6719 148.691 26.6719C150.707 26.6719 152.137 25.7031 152.488 24.1484H150.652ZM154.199 26.5H156.137V21.5625C156.137 20.3672 157.012 19.5859 158.27 19.5859C158.598 19.5859 159.113 19.6406 159.262 19.6953V17.8984C159.082 17.8438 158.738 17.8125 158.457 17.8125C157.356 17.8125 156.434 18.4375 156.199 19.2812H156.067V17.9531H154.199V26.5ZM167.7 20.8281C167.497 19.0312 166.168 17.7812 163.973 17.7812C161.403 17.7812 159.895 19.4297 159.895 22.2031C159.895 25.0156 161.411 26.6719 163.981 26.6719C166.145 26.6719 167.489 25.4688 167.7 23.6797H165.856C165.653 24.5703 164.981 25.0469 163.973 25.0469C162.653 25.0469 161.856 24 161.856 22.2031C161.856 20.4297 162.645 19.4062 163.973 19.4062C165.036 19.4062 165.676 20 165.856 20.8281H167.7ZM172.817 19.3203C173.981 19.3203 174.747 20.1328 174.786 21.3984H170.762C170.848 20.1484 171.661 19.3203 172.817 19.3203ZM174.802 24.1484C174.52 24.7812 173.856 25.1328 172.895 25.1328C171.622 25.1328 170.802 24.2422 170.755 22.8203V22.7188H176.723V22.0938C176.723 19.3984 175.262 17.7812 172.825 17.7812C170.348 17.7812 168.809 19.5078 168.809 22.2578C168.809 25.0078 170.325 26.6719 172.841 26.6719C174.856 26.6719 176.286 25.7031 176.637 24.1484H174.802ZM178.427 26.5H180.364V14.6484H178.427V26.5Z" fill="white"/>
<path d="M9.3248 13L18.6497 29H0L9.3248 13Z" fill="white"/>
<path d="M29.5 0V44" stroke="#5E5E5E"/>
</svg>
