<svg xmlns="http://www.w3.org/2000/svg" xmlns:xlink="http://www.w3.org/1999/xlink" viewBox="0 0 500 500"><defs><clipPath id="freepik--clip-path--inject-11"><path d="M143.42,339.53s-6.4,15.92-6.65,23.61,1.33,19.29-4.6,32.3-11.49,32.08-12.42,37.91,4.4,21.79,7.16,27,1.68,4.82-1.25,4.72a12.43,12.43,0,0,1-10.8-6.23c-3.12-5.24-1.92-8.5-4-10.4l-2.14-1.91-1.84,11.31-2.56-.45,2.33-14.59s-.26-3.31,1.25-4.73,3.86-5.74,3.86-5.74,2.52-20.45,1.89-34.41-1.07-22.77.59-28.58,1.72-7.65,1.92-13.51.06-12.83.09-13.93S143.42,339.53,143.42,339.53Z" style="fill:#fff;stroke:#263238;stroke-linecap:round;stroke-linejoin:round"></path></clipPath><clipPath id="freepik--clip-path-2--inject-11"><path d="M93.26,337.12s4.1,8.93.71,22.76-.09,35.57,5,49.31,4.62,26.19,5.26,29.14-.66,8.78-.43,12.83,7,10.87,8.36,13.11,11.65,2.59,14.22,2.68,3-2.47,1.22-3.63-5.61-7.89-5.61-7.89-5.79-13-6.38-17.45-2.65-30.53-1.73-36,4.13-35.8,5.13-43.83,1.75-19.38,1.75-19.38Z" style="fill:#fff;stroke:#263238;stroke-linecap:round;stroke-linejoin:round"></path></clipPath><clipPath id="freepik--clip-path-3--inject-11"><path d="M99.43,171.11s12.18-5.39,18.28-5.39,19.45,10.31,21.56,12.19,9.61,23.2,10.78,29.06-7.5,31.64-7.5,31.64-15.7,3.28-27.42,2.82-16.88-1.88-16.88-1.88-4.68-23.44-7-37.27-4.92-23-2.81-26.48S99.43,171.11,99.43,171.11Z" style="fill:#fff;stroke:#263238;stroke-linecap:round;stroke-linejoin:round"></path></clipPath></defs><g id="freepik--background-simple--inject-11"><path d="M165.52,69.9S91.77,107.48,55,165.39,21.1,297.74,65.81,353.06s130.14,48,201.68,83.05S418,463.93,451.79,389.72s-17.18-101.94-26-187.82S339.66-9.74,165.52,69.9Z" style="fill:#667EEA"></path><path d="M165.52,69.9S91.77,107.48,55,165.39,21.1,297.74,65.81,353.06s130.14,48,201.68,83.05S418,463.93,451.79,389.72s-17.18-101.94-26-187.82S339.66-9.74,165.52,69.9Z" style="fill:#fff;opacity:0.7000000000000001"></path></g><g id="freepik--Window--inject-11"><rect x="148.02" y="97.23" width="293.01" height="285.23" rx="6.87" style="fill:#fff;stroke:#263238;stroke-linecap:round;stroke-linejoin:round"></rect><path d="M434.35,97.23H154.72a6.7,6.7,0,0,0-6.7,6.69v11.81H441V103.92A6.7,6.7,0,0,0,434.35,97.23Z" style="fill:#667EEA;stroke:#263238;stroke-linecap:round;stroke-linejoin:round"></path><path d="M162.08,106.16a2.76,2.76,0,1,1-2.76-2.75A2.77,2.77,0,0,1,162.08,106.16Z" style="fill:#fff;stroke:#263238;stroke-linecap:round;stroke-linejoin:round"></path><path d="M173.65,106.16a2.76,2.76,0,1,1-2.76-2.75A2.76,2.76,0,0,1,173.65,106.16Z" style="fill:#fff;stroke:#263238;stroke-linecap:round;stroke-linejoin:round"></path><path d="M185.22,106.16a2.76,2.76,0,1,1-2.75-2.75A2.76,2.76,0,0,1,185.22,106.16Z" style="fill:#fff;stroke:#263238;stroke-linecap:round;stroke-linejoin:round"></path><path d="M299,149.41V130.68h-3.84v-2.11h10v2.11h-3.84v18.73Z" style="fill:#263238"></path><path d="M306.6,133.6c0-3.19,1.58-5.24,4.76-5.24s4.8,2,4.8,5.24v10.77c0,3.16-1.58,5.24-4.8,5.24s-4.76-2.08-4.76-5.24Zm2.29,10.89c0,1.91.81,3,2.47,3s2.47-1.1,2.47-3v-11c0-1.88-.77-3-2.47-3s-2.47,1.13-2.47,3Z" style="fill:#263238"></path><path d="M323.24,128.57c3.24,0,4.73,2,4.73,5.18v10.51c0,3.18-1.49,5.15-4.73,5.15h-4.88V128.57Zm0,18.72c1.67,0,2.47-1,2.47-2.94V133.63c0-1.91-.8-2.95-2.5-2.95h-2.5v16.61Z" style="fill:#263238"></path><path d="M332.46,145.21l-.8,4.2h-2.14l4-20.84h3.36l4,20.84h-2.32l-.81-4.2Zm.3-2h4.65l-2.36-12Z" style="fill:#263238"></path><path d="M344.91,141.93l-4.41-13.36h2.41l3.25,10.24,3.27-10.24h2.2l-4.43,13.36v7.48h-2.29Z" style="fill:#263238"></path><path d="M166.3,129.14v.3h-1.17v-.37c0-1-.38-1.58-1.27-1.58s-1.26.59-1.26,1.57c0,2.48,3.71,2.72,3.71,5.83,0,1.67-.8,2.76-2.49,2.76s-2.49-1.09-2.49-2.76v-.63h1.16V135c0,1,.41,1.58,1.29,1.58s1.3-.58,1.3-1.58c0-2.46-3.7-2.7-3.7-5.81,0-1.71.79-2.77,2.45-2.77S166.3,127.46,166.3,129.14Z" style="fill:#263238"></path><path d="M172.27,129.15v1H171.1v-1.06c0-1-.39-1.6-1.29-1.6s-1.3.6-1.3,1.6v5.85c0,1,.41,1.59,1.3,1.59s1.29-.6,1.29-1.59V133.5h1.17v1.37c0,1.68-.79,2.78-2.49,2.78s-2.49-1.1-2.49-2.78v-5.72c0-1.67.79-2.78,2.49-2.78S172.27,127.48,172.27,129.15Z" style="fill:#263238"></path><path d="M174.63,132.57v5H173.4V126.48h1.23v5h2.72v-5h1.23v11.06h-1.23v-5Z" style="fill:#263238"></path><path d="M183.78,131.38v1.11h-2.7v3.93h3.32v1.12h-4.55V126.48h4.55v1.12h-3.32v3.78Z" style="fill:#263238"></path><path d="M188.13,126.48c1.72,0,2.51,1,2.51,2.75v5.58c0,1.69-.79,2.73-2.51,2.73h-2.59V126.48Zm0,9.94c.89,0,1.31-.55,1.31-1.56v-5.69c0-1-.42-1.57-1.32-1.57h-1.33v8.82Z" style="fill:#263238"></path><path d="M193,134.94c0,1,.39,1.59,1.29,1.59s1.28-.6,1.28-1.59v-8.46h1.16v8.39c0,1.68-.78,2.8-2.48,2.8s-2.47-1.12-2.47-2.8v-8.39H193Z" style="fill:#263238"></path><path d="M197.91,137.54V126.48h1.24v9.94h3.16v1.12Z" style="fill:#263238"></path><path d="M207.18,131.38v1.11h-2.71v3.93h3.32v1.12h-4.55V126.48h4.55v1.12h-3.32v3.78Z" style="fill:#263238"></path><path d="M237.6,162.34v.33a2.09,2.09,0,0,1-1.2,2.17,2.13,2.13,0,0,1,1.2,2.22v.78a2.48,2.48,0,1,1-5,0v-.78a2.11,2.11,0,0,1,1.22-2.22,2.06,2.06,0,0,1-1.22-2.17v-.33a2.48,2.48,0,1,1,5,0Zm-3.8,0v.51c0,1,.49,1.48,1.32,1.48s1.32-.46,1.32-1.48v-.51c0-1.08-.49-1.57-1.32-1.57S233.8,161.29,233.8,162.37Zm0,4.55v.89c0,1.08.48,1.59,1.32,1.59s1.31-.51,1.32-1.59v-.89c0-1-.45-1.51-1.32-1.51S233.8,165.9,233.8,166.92Z" style="fill:#263238"></path><path d="M239.79,163.18v1.46h-1.13v-1.46Zm0,5.73v1.45h-1.13v-1.45Z" style="fill:#263238"></path><path d="M240.9,162.39c0-1.61.8-2.65,2.41-2.65s2.41,1,2.41,2.65v5.42c0,1.61-.79,2.66-2.41,2.66s-2.41-1.05-2.41-2.66Zm1.16,5.49c0,1,.4,1.52,1.25,1.52s1.24-.57,1.24-1.52v-5.55c0-1-.39-1.53-1.24-1.53s-1.25.57-1.25,1.53Z" style="fill:#263238"></path><path d="M246.74,162.39c0-1.61.8-2.65,2.41-2.65s2.41,1,2.41,2.65v5.42c0,1.61-.79,2.66-2.41,2.66s-2.41-1.05-2.41-2.66Zm1.16,5.49c0,1,.4,1.52,1.25,1.52s1.24-.57,1.24-1.52v-5.55c0-1-.39-1.53-1.24-1.53s-1.25.57-1.25,1.53Z" style="fill:#263238"></path><path d="M263.81,161.76a3.14,3.14,0,0,1-1.46.45v-1a1.8,1.8,0,0,0,1.8-1.4H265v10.51h-1.16Z" style="fill:#263238"></path><path d="M266.65,162.39c0-1.61.79-2.65,2.4-2.65s2.42,1,2.42,2.65v5.42c0,1.61-.8,2.66-2.42,2.66s-2.4-1.05-2.4-2.66Zm1.15,5.49c0,1,.41,1.52,1.25,1.52s1.25-.57,1.25-1.52v-5.55c0-1-.39-1.53-1.25-1.53s-1.25.57-1.25,1.53Z" style="fill:#263238"></path><path d="M273.7,163.18v1.46h-1.12v-1.46Zm0,5.73v1.45h-1.12v-1.45Z" style="fill:#263238"></path><path d="M274.82,162.39c0-1.61.79-2.65,2.4-2.65s2.42,1,2.42,2.65v5.42c0,1.61-.8,2.66-2.42,2.66s-2.4-1.05-2.4-2.66Zm1.15,5.49c0,1,.41,1.52,1.25,1.52s1.25-.57,1.25-1.52v-5.55c0-1-.4-1.53-1.25-1.53s-1.25.57-1.25,1.53Z" style="fill:#263238"></path><path d="M280.66,162.39c0-1.61.79-2.65,2.4-2.65s2.42,1,2.42,2.65v5.42c0,1.61-.8,2.66-2.42,2.66s-2.4-1.05-2.4-2.66Zm1.15,5.49c0,1,.41,1.52,1.25,1.52s1.25-.57,1.25-1.52v-5.55c0-1-.39-1.53-1.25-1.53s-1.25.57-1.25,1.53Z" style="fill:#263238"></path><path d="M298.47,161.76a3.14,3.14,0,0,1-1.46.45v-1a1.8,1.8,0,0,0,1.8-1.4h.82v10.51h-1.16Z" style="fill:#263238"></path><path d="M306.13,162.4c0,3.17-3.56,4.31-3.58,6.73v.17H306v1.06H301.4v-.9c0-3.39,3.56-4.05,3.56-7,0-1.08-.36-1.65-1.24-1.65s-1.23.61-1.23,1.54v.93H301.4v-.85c0-1.61.73-2.68,2.36-2.68S306.13,160.8,306.13,162.4Z" style="fill:#263238"></path><path d="M308.34,163.18v1.46h-1.13v-1.46Zm0,5.73v1.45h-1.13v-1.45Z" style="fill:#263238"></path><path d="M309.45,162.39c0-1.61.79-2.65,2.4-2.65s2.42,1,2.42,2.65v5.42c0,1.61-.8,2.66-2.42,2.66s-2.4-1.05-2.4-2.66Zm1.15,5.49c0,1,.41,1.52,1.25,1.52s1.25-.57,1.25-1.52v-5.55c0-1-.4-1.53-1.25-1.53s-1.25.57-1.25,1.53Z" style="fill:#263238"></path><path d="M315.29,162.39c0-1.61.79-2.65,2.4-2.65s2.42,1,2.42,2.65v5.42c0,1.61-.8,2.66-2.42,2.66s-2.4-1.05-2.4-2.66Zm1.15,5.49c0,1,.41,1.52,1.25,1.52s1.25-.57,1.25-1.52v-5.55c0-1-.39-1.53-1.25-1.53s-1.25.57-1.25,1.53Z" style="fill:#263238"></path><path d="M337,162.4c0,3.17-3.56,4.31-3.58,6.73v.17h3.46v1.06h-4.61v-.9c0-3.39,3.55-4.05,3.55-7,0-1.08-.36-1.65-1.23-1.65s-1.23.61-1.23,1.54v.93h-1.09v-.85c0-1.61.73-2.68,2.35-2.68S337,160.8,337,162.4Z" style="fill:#263238"></path><path d="M339.2,163.18v1.46h-1.12v-1.46Zm0,5.73v1.45h-1.12v-1.45Z" style="fill:#263238"></path><path d="M340.31,162.39c0-1.61.8-2.65,2.41-2.65s2.41,1,2.41,2.65v5.42c0,1.61-.79,2.66-2.41,2.66s-2.41-1.05-2.41-2.66Zm1.16,5.49c0,1,.41,1.52,1.25,1.52s1.24-.57,1.24-1.52v-5.55c0-1-.39-1.53-1.24-1.53s-1.25.57-1.25,1.53Z" style="fill:#263238"></path><path d="M346.15,162.39c0-1.61.8-2.65,2.41-2.65s2.42,1,2.42,2.65v5.42c0,1.61-.8,2.66-2.42,2.66s-2.41-1.05-2.41-2.66Zm1.16,5.49c0,1,.41,1.52,1.25,1.52s1.24-.57,1.24-1.52v-5.55c0-1-.39-1.53-1.24-1.53s-1.25.57-1.25,1.53Z" style="fill:#263238"></path><path d="M369.91,168.24v2.12h-1.15v-2.12h-3.39v-1.06l3.26-7.33h1.28v7.33h.84v1.06Zm-3.46-1.06h2.31V162Z" style="fill:#263238"></path><path d="M372.77,163.18v1.46h-1.12v-1.46Zm0,5.73v1.45h-1.12v-1.45Z" style="fill:#263238"></path><path d="M373.88,162.39c0-1.61.8-2.65,2.41-2.65s2.41,1,2.41,2.65v5.42c0,1.61-.79,2.66-2.41,2.66s-2.41-1.05-2.41-2.66Zm1.16,5.49c0,1,.41,1.52,1.25,1.52s1.24-.57,1.24-1.52v-5.55c0-1-.39-1.53-1.24-1.53s-1.25.57-1.25,1.53Z" style="fill:#263238"></path><path d="M379.73,162.39c0-1.61.79-2.65,2.4-2.65s2.42,1,2.42,2.65v5.42c0,1.61-.8,2.66-2.42,2.66s-2.4-1.05-2.4-2.66Zm1.15,5.49c0,1,.41,1.52,1.25,1.52s1.25-.57,1.25-1.52v-5.55c0-1-.4-1.53-1.25-1.53s-1.25.57-1.25,1.53Z" style="fill:#263238"></path><path d="M405.66,162.37v.2h-1.1v-.27c0-1-.39-1.5-1.24-1.5s-1.28.57-1.28,1.69v2.36a1.69,1.69,0,0,1,1.7-1.13c1.35,0,1.95,1,1.95,2.5v1.59c0,1.61-.8,2.66-2.41,2.66s-2.41-1.05-2.41-2.66v-5.36c0-1.67.75-2.71,2.41-2.71S405.66,160.77,405.66,162.37ZM402,166.31v1.57c0,1,.39,1.52,1.24,1.52s1.25-.57,1.25-1.52v-1.57c0-.95-.4-1.52-1.25-1.52S402,165.36,402,166.31Z" style="fill:#263238"></path><path d="M407.91,163.18v1.46h-1.13v-1.46Zm0,5.73v1.45h-1.13v-1.45Z" style="fill:#263238"></path><path d="M409,162.39c0-1.61.8-2.65,2.4-2.65s2.42,1,2.42,2.65v5.42c0,1.61-.79,2.66-2.42,2.66s-2.4-1.05-2.4-2.66Zm1.16,5.49c0,1,.4,1.52,1.24,1.52s1.25-.57,1.25-1.52v-5.55c0-1-.39-1.53-1.25-1.53s-1.24.57-1.24,1.53Z" style="fill:#263238"></path><path d="M414.86,162.39c0-1.61.8-2.65,2.41-2.65s2.41,1,2.41,2.65v5.42c0,1.61-.79,2.66-2.41,2.66s-2.41-1.05-2.41-2.66Zm1.16,5.49c0,1,.4,1.52,1.25,1.52s1.24-.57,1.24-1.52v-5.55c0-1-.39-1.53-1.24-1.53s-1.25.57-1.25,1.53Z" style="fill:#263238"></path><rect x="227.49" y="287.55" width="32.02" height="30.17" style="fill:none;stroke:#adadad;stroke-miterlimit:10"></rect><rect x="260.44" y="287.55" width="32.02" height="30.17" style="fill:none;stroke:#adadad;stroke-miterlimit:10"></rect><rect x="293.39" y="287.55" width="32.02" height="30.17" style="fill:none;stroke:#adadad;stroke-miterlimit:10"></rect><rect x="326.35" y="287.55" width="32.02" height="30.17" style="fill:none;stroke:#adadad;stroke-miterlimit:10"></rect><rect x="359.3" y="287.55" width="32.02" height="30.17" style="fill:none;stroke:#adadad;stroke-miterlimit:10"></rect><rect x="392.39" y="287.55" width="32.02" height="30.17" style="fill:none;stroke:#adadad;stroke-miterlimit:10"></rect><line x1="161.65" y1="176.7" x2="213.5" y2="176.7" style="fill:none;stroke:#adadad;stroke-miterlimit:10"></line><line x1="161.65" y1="182.39" x2="213.5" y2="182.39" style="fill:none;stroke:#adadad;stroke-miterlimit:10"></line><line x1="161.65" y1="188.07" x2="213.5" y2="188.07" style="fill:none;stroke:#adadad;stroke-miterlimit:10"></line><line x1="161.65" y1="193.75" x2="213.5" y2="193.75" style="fill:none;stroke:#adadad;stroke-miterlimit:10"></line><line x1="161.65" y1="199.43" x2="213.5" y2="199.43" style="fill:none;stroke:#adadad;stroke-miterlimit:10"></line><line x1="161.65" y1="205.12" x2="213.5" y2="205.12" style="fill:none;stroke:#adadad;stroke-miterlimit:10"></line><line x1="161.65" y1="210.8" x2="213.5" y2="210.8" style="fill:none;stroke:#adadad;stroke-miterlimit:10"></line><line x1="161.65" y1="216.48" x2="213.5" y2="216.48" style="fill:none;stroke:#adadad;stroke-miterlimit:10"></line><line x1="161.65" y1="303.26" x2="213.5" y2="303.26" style="fill:none;stroke:#adadad;stroke-miterlimit:10"></line><line x1="161.65" y1="308.94" x2="213.5" y2="308.94" style="fill:none;stroke:#adadad;stroke-miterlimit:10"></line><line x1="161.65" y1="314.62" x2="213.5" y2="314.62" style="fill:none;stroke:#adadad;stroke-miterlimit:10"></line><line x1="161.65" y1="320.3" x2="213.5" y2="320.3" style="fill:none;stroke:#adadad;stroke-miterlimit:10"></line><line x1="161.65" y1="325.99" x2="213.5" y2="325.99" style="fill:none;stroke:#adadad;stroke-miterlimit:10"></line><line x1="161.65" y1="331.67" x2="213.5" y2="331.67" style="fill:none;stroke:#adadad;stroke-miterlimit:10"></line><line x1="161.65" y1="337.35" x2="213.5" y2="337.35" style="fill:none;stroke:#adadad;stroke-miterlimit:10"></line><line x1="161.65" y1="343.03" x2="213.5" y2="343.03" style="fill:none;stroke:#adadad;stroke-miterlimit:10"></line><rect x="227.49" y="176.73" width="32.02" height="30.17" style="fill:none;stroke:#adadad;stroke-miterlimit:10"></rect><rect x="260.44" y="176.73" width="32.02" height="30.17" style="fill:#667EEA;stroke:#adadad;stroke-miterlimit:10"></rect><rect x="293.39" y="176.73" width="32.02" height="30.17" style="fill:#667EEA;stroke:#adadad;stroke-miterlimit:10"></rect><rect x="326.35" y="176.73" width="32.02" height="30.17" style="fill:none;stroke:#adadad;stroke-miterlimit:10"></rect><rect x="359.3" y="176.73" width="32.02" height="30.17" style="fill:none;stroke:#adadad;stroke-miterlimit:10"></rect><rect x="392.39" y="176.73" width="32.02" height="30.17" style="fill:none;stroke:#adadad;stroke-miterlimit:10"></rect><line x1="266.06" y1="185.33" x2="288.45" y2="185.33" style="fill:none;stroke:#adadad;stroke-miterlimit:10"></line><line x1="266.06" y1="188.74" x2="288.45" y2="188.74" style="fill:none;stroke:#adadad;stroke-miterlimit:10"></line><line x1="266.06" y1="192.15" x2="288.45" y2="192.15" style="fill:none;stroke:#adadad;stroke-miterlimit:10"></line><line x1="266.06" y1="195.55" x2="288.45" y2="195.55" style="fill:none;stroke:#adadad;stroke-miterlimit:10"></line><line x1="266.06" y1="198.96" x2="288.45" y2="198.96" style="fill:none;stroke:#adadad;stroke-miterlimit:10"></line><rect x="227.49" y="213.64" width="32.02" height="30.17" style="fill:none;stroke:#adadad;stroke-miterlimit:10"></rect><rect x="260.44" y="213.64" width="32.02" height="30.17" style="fill:#667EEA;stroke:#adadad;stroke-miterlimit:10"></rect><rect x="293.39" y="213.64" width="32.02" height="30.17" style="fill:none;stroke:#adadad;stroke-miterlimit:10"></rect><rect x="326.35" y="213.64" width="32.02" height="30.17" style="fill:none;stroke:#adadad;stroke-miterlimit:10"></rect><rect x="359.3" y="213.64" width="32.02" height="30.17" style="fill:none;stroke:#adadad;stroke-miterlimit:10"></rect><rect x="392.39" y="213.64" width="32.02" height="30.17" style="fill:none;stroke:#adadad;stroke-miterlimit:10"></rect><line x1="266.06" y1="221.84" x2="288.45" y2="221.84" style="fill:none;stroke:#adadad;stroke-miterlimit:10"></line><line x1="266.06" y1="225.24" x2="288.45" y2="225.24" style="fill:none;stroke:#adadad;stroke-miterlimit:10"></line><line x1="266.06" y1="228.65" x2="288.45" y2="228.65" style="fill:none;stroke:#adadad;stroke-miterlimit:10"></line><line x1="266.06" y1="232.06" x2="288.45" y2="232.06" style="fill:none;stroke:#adadad;stroke-miterlimit:10"></line><line x1="266.06" y1="235.47" x2="288.45" y2="235.47" style="fill:none;stroke:#adadad;stroke-miterlimit:10"></line><rect x="227.49" y="250.54" width="32.02" height="30.17" style="fill:none;stroke:#adadad;stroke-miterlimit:10"></rect><rect x="260.44" y="250.54" width="32.02" height="30.17" style="fill:none;stroke:#adadad;stroke-miterlimit:10"></rect><rect x="293.39" y="250.54" width="32.02" height="30.17" style="fill:none;stroke:#adadad;stroke-miterlimit:10"></rect><rect x="326.35" y="250.54" width="32.02" height="30.17" style="fill:none;stroke:#adadad;stroke-miterlimit:10"></rect><rect x="359.3" y="250.54" width="32.02" height="30.17" style="fill:#667EEA;stroke:#adadad;stroke-miterlimit:10"></rect><rect x="392.39" y="250.54" width="32.02" height="30.17" style="fill:none;stroke:#adadad;stroke-miterlimit:10"></rect><line x1="365.35" y1="258.83" x2="387.74" y2="258.83" style="fill:none;stroke:#adadad;stroke-miterlimit:10"></line><line x1="365.35" y1="262.24" x2="387.74" y2="262.24" style="fill:none;stroke:#adadad;stroke-miterlimit:10"></line><line x1="365.35" y1="265.64" x2="387.74" y2="265.64" style="fill:none;stroke:#adadad;stroke-miterlimit:10"></line><line x1="365.35" y1="269.05" x2="387.74" y2="269.05" style="fill:none;stroke:#adadad;stroke-miterlimit:10"></line><line x1="365.35" y1="272.46" x2="387.74" y2="272.46" style="fill:none;stroke:#adadad;stroke-miterlimit:10"></line><rect x="227.49" y="324.55" width="32.02" height="30.17" style="fill:none;stroke:#adadad;stroke-miterlimit:10"></rect><rect x="260.44" y="324.55" width="32.02" height="30.17" style="fill:none;stroke:#adadad;stroke-miterlimit:10"></rect><rect x="293.39" y="324.55" width="32.02" height="30.17" style="fill:#667EEA;stroke:#adadad;stroke-miterlimit:10"></rect><rect x="326.35" y="324.55" width="32.02" height="30.17" style="fill:#667EEA;stroke:#adadad;stroke-miterlimit:10"></rect><rect x="359.3" y="324.55" width="32.02" height="30.17" style="fill:#667EEA;stroke:#adadad;stroke-miterlimit:10"></rect><rect x="392.39" y="324.55" width="32.02" height="30.17" style="fill:none;stroke:#adadad;stroke-miterlimit:10"></rect><line x1="298.67" y1="332.81" x2="321.06" y2="332.81" style="fill:none;stroke:#adadad;stroke-miterlimit:10"></line><line x1="298.67" y1="336.22" x2="321.06" y2="336.22" style="fill:none;stroke:#adadad;stroke-miterlimit:10"></line><line x1="298.67" y1="339.63" x2="321.06" y2="339.63" style="fill:none;stroke:#adadad;stroke-miterlimit:10"></line><line x1="298.67" y1="343.03" x2="321.06" y2="343.03" style="fill:none;stroke:#adadad;stroke-miterlimit:10"></line><line x1="298.67" y1="346.44" x2="321.06" y2="346.44" style="fill:none;stroke:#adadad;stroke-miterlimit:10"></line><line x1="331.28" y1="332.81" x2="353.67" y2="332.81" style="fill:none;stroke:#adadad;stroke-miterlimit:10"></line><line x1="331.28" y1="336.22" x2="353.67" y2="336.22" style="fill:none;stroke:#adadad;stroke-miterlimit:10"></line><line x1="331.28" y1="339.63" x2="353.67" y2="339.63" style="fill:none;stroke:#adadad;stroke-miterlimit:10"></line><line x1="331.28" y1="343.03" x2="353.67" y2="343.03" style="fill:none;stroke:#adadad;stroke-miterlimit:10"></line><line x1="331.28" y1="346.44" x2="353.67" y2="346.44" style="fill:none;stroke:#adadad;stroke-miterlimit:10"></line><line x1="363.89" y1="332.81" x2="386.28" y2="332.81" style="fill:none;stroke:#adadad;stroke-miterlimit:10"></line><line x1="363.89" y1="336.22" x2="386.28" y2="336.22" style="fill:none;stroke:#adadad;stroke-miterlimit:10"></line><line x1="363.89" y1="339.63" x2="386.28" y2="339.63" style="fill:none;stroke:#adadad;stroke-miterlimit:10"></line><line x1="363.89" y1="343.03" x2="386.28" y2="343.03" style="fill:none;stroke:#adadad;stroke-miterlimit:10"></line><line x1="363.89" y1="346.44" x2="386.28" y2="346.44" style="fill:none;stroke:#adadad;stroke-miterlimit:10"></line></g><g id="freepik--Character--inject-11"><path d="M138.88,113.55c-9.06-6.71-21-6-28.17-1.51s-9.39,12.57-11.4,18.1c-4,11-12.59,17.54-21.89,23.89-9,6.17-20.69,15.21-14.52,27.54,2.79,5.59,6.28,9.43,1,18.51s-10.83,13.28-7,22,8.73,22.36,29.34,17.47,26.9-28.3,29-37,12.19-12.27,19.56-18.52,6.64-16.07,4.54-22.35c-1.6-4.82-3.4-11.68,2.11-17.14l.72.22s11.07-5,12.91-8.05S147.93,120.25,138.88,113.55Z" style="fill:#263238;stroke:#263238;stroke-linecap:round;stroke-linejoin:round"></path><path d="M155,172.51s21.56,16.65,27.18,20.16,19.23,10.08,22.27,12.43-1.64,12.42-8.2,16.17-12.66-.47-16.17-2.35-27-17.11-27-17.11Z" style="fill:#919191;stroke:#263238;stroke-linecap:round;stroke-linejoin:round"></path><polyline points="159.81 182.42 156.15 203.41 164.48 186.75" style="fill:none;stroke:#263238;stroke-linecap:round;stroke-linejoin:round"></polyline><path d="M162.24,282s-5.62.23-12-5.63-8-8.44-8-8.44S139,235.33,139,232.28,141.62,214,144,206.5s6.8,1.41,6.8,1.41,5.39,52.5,6.33,57.66S162.24,282,162.24,282Z" style="fill:#787878;stroke:#263238;stroke-linecap:round;stroke-linejoin:round"></path><path d="M143.42,339.53s-6.4,15.92-6.65,23.61,1.33,19.29-4.6,32.3-11.49,32.08-12.42,37.91,4.4,21.79,7.16,27,1.68,4.82-1.25,4.72a12.43,12.43,0,0,1-10.8-6.23c-3.12-5.24-1.92-8.5-4-10.4l-2.14-1.91-1.84,11.31-2.56-.45,2.33-14.59s-.26-3.31,1.25-4.73,3.86-5.74,3.86-5.74,2.52-20.45,1.89-34.41-1.07-22.77.59-28.58,1.72-7.65,1.92-13.51.06-12.83.09-13.93S143.42,339.53,143.42,339.53Z" style="fill:#fff"></path><g style="clip-path:url(#freepik--clip-path--inject-11)"><path d="M116.2,341.92c0,.8,0,4.76,0,9.12,3.19.66,11,1.54,23.67-1.62,1.74-5.38,3.55-9.89,3.55-9.89S116.24,340.82,116.2,341.92Z" style="opacity:0.2"></path></g><path d="M143.42,339.53s-6.4,15.92-6.65,23.61,1.33,19.29-4.6,32.3-11.49,32.08-12.42,37.91,4.4,21.79,7.16,27,1.68,4.82-1.25,4.72a12.43,12.43,0,0,1-10.8-6.23c-3.12-5.24-1.92-8.5-4-10.4l-2.14-1.91-1.84,11.31-2.56-.45,2.33-14.59s-.26-3.31,1.25-4.73,3.86-5.74,3.86-5.74,2.52-20.45,1.89-34.41-1.07-22.77.59-28.58,1.72-7.65,1.92-13.51.06-12.83.09-13.93S143.42,339.53,143.42,339.53Z" style="fill:none;stroke:#263238;stroke-linecap:round;stroke-linejoin:round"></path><path d="M126.91,460.37l-.29-.58c-6.28,1.88-9-4.46-12.25-12a39.73,39.73,0,0,0-6.18-10c-.12.12-.23.24-.34.34-1.51,1.42-1.25,4.73-1.25,4.73l-2.33,14.59,2.56.45,1.84-11.31,2.14,1.91c2.13,1.9.93,5.16,4,10.4a12.43,12.43,0,0,0,10.8,6.23C128.59,465.19,129.67,465.59,126.91,460.37Z" style="fill:#667EEA;stroke:#263238;stroke-linecap:round;stroke-linejoin:round"></path><polygon points="103.75 451.16 104.13 464.39 105.96 464.45 106.94 454.56 103.75 451.16" style="fill:#667EEA;stroke:#263238;stroke-linecap:round;stroke-linejoin:round"></polygon><path d="M93.26,337.12s4.1,8.93.71,22.76-.09,35.57,5,49.31,4.62,26.19,5.26,29.14-.66,8.78-.43,12.83,7,10.87,8.36,13.11,11.65,2.59,14.22,2.68,3-2.47,1.22-3.63-5.61-7.89-5.61-7.89-5.79-13-6.38-17.45-2.65-30.53-1.73-36,4.13-35.8,5.13-43.83,1.75-19.38,1.75-19.38Z" style="fill:#fff"></path><g style="clip-path:url(#freepik--clip-path-2--inject-11)"><path d="M119.82,350.06c.54-5.95.89-11.29.89-11.29l-27.45-1.65a29.59,29.59,0,0,1,2,9.86C99.78,348.59,107.82,350.5,119.82,350.06Z" style="opacity:0.2"></path></g><path d="M93.26,337.12s4.1,8.93.71,22.76-.09,35.57,5,49.31,4.62,26.19,5.26,29.14-.66,8.78-.43,12.83,7,10.87,8.36,13.11,11.65,2.59,14.22,2.68,3-2.47,1.22-3.63-5.61-7.89-5.61-7.89-5.79-13-6.38-17.45-2.65-30.53-1.73-36,4.13-35.8,5.13-43.83,1.75-19.38,1.75-19.38Z" style="fill:none;stroke:#263238;stroke-linecap:round;stroke-linejoin:round"></path><path d="M127.55,463.32a10.17,10.17,0,0,1-2.06-2.29c-4.92-.24-10.84-.8-12.81-2.61-2.31-2.11-7.79-12.16-8.6-13.66a45,45,0,0,0-.33,6.4c.23,4,7,10.87,8.36,13.11s11.65,2.59,14.22,2.68S129.34,464.48,127.55,463.32Z" style="fill:#667EEA;stroke:#263238;stroke-linecap:round;stroke-linejoin:round"></path><path d="M88.64,236.5s-12.65,38-11.72,54.38,10.32,48.76,10.32,48.76,21.09,5.62,36.09,5.62a93.88,93.88,0,0,0,28.13-4.69s7.5-53,4.22-71.72A81.77,81.77,0,0,0,142.55,237Z" style="fill:#263238;stroke:#263238;stroke-linecap:round;stroke-linejoin:round"></path><path d="M99.43,171.11s12.18-5.39,18.28-5.39,19.45,10.31,21.56,12.19,9.61,23.2,10.78,29.06-7.5,31.64-7.5,31.64-15.7,3.28-27.42,2.82-16.88-1.88-16.88-1.88-4.68-23.44-7-37.27-4.92-23-2.81-26.48S99.43,171.11,99.43,171.11Z" style="fill:#fff"></path><g style="clip-path:url(#freepik--clip-path-3--inject-11)"><path d="M142.55,238.61s8.68-25.78,7.5-31.64-8.67-27.19-10.78-29.06c-.64-.58-2.34-1.94-4.56-3.55l-1.51,2.19S141,199,141.26,207.71c.25,8.13-7,29.7-8,32.48C138.66,239.43,142.55,238.61,142.55,238.61Z" style="opacity:0.30000000000000004"></path></g><path d="M99.43,171.11s12.18-5.39,18.28-5.39,19.45,10.31,21.56,12.19,9.61,23.2,10.78,29.06-7.5,31.64-7.5,31.64-15.7,3.28-27.42,2.82-16.88-1.88-16.88-1.88-4.68-23.44-7-37.27-4.92-23-2.81-26.48S99.43,171.11,99.43,171.11Z" style="fill:none;stroke:#263238;stroke-linecap:round;stroke-linejoin:round"></path><path d="M128.72,169.23s12.19,21.8,15.71,35.4,9.37,70.55,11.95,73.13a26,26,0,0,0,5.86,4.22s-7-38.44-7-49.93,1.88-56.49.7-59.07-5.15-1.17-13.36-2.11S128.72,169.23,128.72,169.23Z" style="fill:#919191;stroke:#263238;stroke-linecap:round;stroke-linejoin:round"></path><path d="M108.69,164.52h0l-39,14.79s1.4,45.47,1.87,51.33,2.82,8.91,6.1,11.25,4.45-.46,4.45-.46-6.56,24.61-10.55,33-1.87,8.91-1.87,8.91,15.23,6.56,26.25,3.05,14.3-11.49,14.3-11.49L104.11,203s0-20.63,1.17-25.32S108.69,164.52,108.69,164.52Z" style="fill:#919191;stroke:#263238;stroke-linecap:round;stroke-linejoin:round"></path><path d="M81.2,253.71s11.66.33,18.65-2.33v4.33a111.72,111.72,0,0,1-15.65,1" style="fill:none;stroke:#263238;stroke-linecap:round;stroke-linejoin:round"></path><path d="M77.87,179.42s10.33,7,13.66,18" style="fill:none;stroke:#263238;stroke-linecap:round;stroke-linejoin:round"></path><path d="M108.69,164.52a20,20,0,0,0-2.85,2.86c-1.34,1.67-5,9.39-7.21,11.73s-1,2.85-.16,2.69,8.88-3,10.39-3.69a36.74,36.74,0,0,1,3.86-1.34l12.07,11.9,3.36-12.07s12.57,1,14.08,1.17,2.68-.67,1.51-.67-10.9-4.86-12.24-5.53-3.19-4.7-7.21-7.38S111.55,160.67,108.69,164.52Z" style="fill:#fff;stroke:#263238;stroke-linecap:round;stroke-linejoin:round"></path><path d="M125.63,168.55l-.84,20.12S112.55,173.24,111,171.4a14.28,14.28,0,0,1-2.18-5.2l1.34-17.44s7.88,12.75,9.9,14.09S125.46,166.87,125.63,168.55Z" style="fill:#fff;stroke:#263238;stroke-linecap:round;stroke-linejoin:round"></path><path d="M120.1,162.85c-2-1.34-9.9-14.09-9.9-14.09l-1,13.06c1.54,3.11,13.37,10.07,15.34,10.39a6.14,6.14,0,0,0,.93.1l.16-3.76C125.46,166.87,122.11,164.19,120.1,162.85Z" style="fill:#263238;stroke:#263238;stroke-linecap:round;stroke-linejoin:round"></path><path d="M140.05,127.63s-17.94,10.57-23.31,13.08l-3,.84s-3.86-5.53-5.71-4.36-2.85,4.19-1.84,6.88a11.85,11.85,0,0,0,4,4.69s.17,8.05,1.35,11.07S125,170.06,127,170.39s3.86,0,4.87-1.84,7.37-9.39,10.22-19.79S143.24,129.31,140.05,127.63Z" style="fill:#fff;stroke:#263238;stroke-linecap:round;stroke-linejoin:round"></path><polyline points="136.03 144.57 136.53 154.3 131.16 153.12" style="fill:none;stroke:#263238;stroke-linecap:round;stroke-linejoin:round"></polyline><path d="M124.46,154.3s1.17,1.5,6,3.18" style="fill:none;stroke:#263238;stroke-linecap:round;stroke-linejoin:round"></path><path d="M123.62,143.4s1.34,2.85,6.2,1.84" style="fill:none;stroke:#263238;stroke-linecap:round;stroke-linejoin:round"></path><path d="M137.87,147.25a2.91,2.91,0,0,0,3.52,1.18" style="fill:none;stroke:#263238;stroke-linecap:round;stroke-linejoin:round"></path><path d="M125,138.7a10.06,10.06,0,0,1,7.88,0" style="fill:none;stroke:#263238;stroke-linecap:round;stroke-linejoin:round"></path><path d="M142.73,142.56c-.67-1.85-3.68-2.52-3.68-2.52" style="fill:none;stroke:#263238;stroke-linecap:round;stroke-linejoin:round"></path><path d="M173.23,215.2l-15,3.37s-18.61-.81-20-.27-.13,6.07-.13,6.07a41.91,41.91,0,0,1-6.07,0c-2.29-.27-3.37.14-2.83,1.62s2.83,2.83,5,2.83a46.13,46.13,0,0,0,6.6-.94s5.53,2,7.56,2,5-1.75,5-1.75,3.64.13,5.53.27,4.31-2.3,4.31-2.3l14.7-.4Z" style="fill:#fff;stroke:#263238;stroke-linecap:round;stroke-linejoin:round"></path><path d="M135.74,217.36s-3.51.27-3.51,1.35,2.84,9.17,2.84,9.17l5.66.54s.81-.27.13-1.35a15.9,15.9,0,0,0-2.69-2.7l.13-6.07Z" style="fill:#fff;stroke:#263238;stroke-linecap:round;stroke-linejoin:round"></path><path d="M141.52,216.41s-6.11-.53-6.34.16,1,11,1,11,6.18,1.33,7,1.27a1.14,1.14,0,0,0,.68-1.93,16,16,0,0,0-3.24-1.94Z" style="fill:#fff;stroke:#263238;stroke-linecap:round;stroke-linejoin:round"></path><path d="M145.05,215.74s-6.07-1-6.34-.27.27,11.06.27,11.06,6.07,1.75,6.87,1.75a1.15,1.15,0,0,0,.81-1.89,16.1,16.1,0,0,0-3.1-2.15Z" style="fill:#fff;stroke:#263238;stroke-linecap:round;stroke-linejoin:round"></path><path d="M160.69,219.78s-15.11-5.66-15.91-5.93-1.35.14-1.35.68S141,225,141.81,225.72s5.66,2.16,5.66,2.16,1.35-.95,1.49-1.35-1.49-1.49-1.49-1.49l.27-3,3.51,1.21" style="fill:#fff;stroke:#263238;stroke-linecap:round;stroke-linejoin:round"></path><path d="M162.17,217.49s3.38,4,1.76,8.23h3.5s1.35-6.74-1.75-8.63Z" style="fill:#263238;stroke:#263238;stroke-linecap:round;stroke-linejoin:round"></path><path d="M167.43,215.47s2.39,3.12,3,13.59c.12,1.94,25.29-1.45,32.3-2.8s9.71-4,10.25-9.85-5.94-11.73-10.79-13.75S167.43,215.47,167.43,215.47Z" style="fill:#919191;stroke:#263238;stroke-linecap:round;stroke-linejoin:round"></path><rect x="98.8" y="132.66" width="13.75" height="29.85" rx="1.95" transform="translate(-54.72 62.59) rotate(-26.48)" style="fill:#667EEA;stroke:#263238;stroke-linecap:round;stroke-linejoin:round"></rect><path d="M96.45,179.11l2.35-9.55-5-15.77s4.53-11.57,5.37-12.74,3-2.35,3.85-2,.84,1.51-.33,2.18a5.35,5.35,0,0,0-1.85,2.34l-2.51,8.56L99.47,154l3.19-9.73s9.22-1.17,9.72-1.17,2.52.17,1.51,1.51a3.8,3.8,0,0,1-2.34,1.51h3.85s1.34.67.5,1.68-6.53,2.51-6.53,2.51l-2.18,6.88,4.19-4.87,4.19-.67s2.85.67,2.35,1.85-3,.5-3,.5l-2.52,1.34-3.85,7v8.72c0,2.18-3.86,10.07-3.86,10.07Z" style="fill:#fff;stroke:#263238;stroke-linecap:round;stroke-linejoin:round"></path><polyline points="111.55 146.08 105.84 147.42 102.83 157.15" style="fill:none;stroke:#263238;stroke-linecap:round;stroke-linejoin:round"></polyline><path d="M94.5,176l15.24,5.16s-12.08,53.32-14,58.2c-3.06,7.88-13.91,6.25-18.37,4.85s-7-10.08-5.86-13.6S94.5,176,94.5,176Z" style="fill:#919191;stroke:#263238;stroke-linecap:round;stroke-linejoin:round"></path></g></svg>